<svg width="188" height="173" viewBox="0 0 188 173" fill="none" xmlns="http://www.w3.org/2000/svg">
<g opacity="0.15" filter="url(#filter0_d_1_11370)">
<path d="M99.4112 0.349287C96.0214 0.843393 83.4328 2.0716 77.7503 2.45277C74.5012 2.67864 66.948 2.721 64.8522 2.53747C63.7832 2.43865 63.5441 2.36806 62.883 1.93043C61.8703 1.23868 61.2374 1.06927 60.0418 1.13986C58.6493 1.23868 57.6085 1.76102 56.441 2.93276C55.3017 4.09038 54.8798 4.93741 54.7813 6.20797C54.711 7.29501 54.922 9.94906 55.3158 12.5466C55.7378 15.356 55.9065 17.5724 55.8081 18.73C55.7378 19.4218 55.4564 20.6076 55.0345 21.9347C54.6547 23.0923 54.0218 25.1252 53.6279 26.4522C52.348 30.6874 51.2649 33.0591 49.7177 34.9932C48.3674 36.7014 46.1873 38.2402 44.2744 38.8472C42.8959 39.2848 41.827 39.3837 37.4526 39.5107C34.5129 39.5813 32.614 39.7084 31.7982 39.8495C29.9275 40.1884 27.227 41.1342 25.1031 42.193C20.8271 44.3247 18.0984 46.5694 14.9759 50.5646C14.3007 51.4257 12.8661 53.2328 11.783 54.588C8.46356 58.7385 7.92907 59.4444 7.43678 60.4749C6.56472 62.2396 6.48032 62.7478 6.43813 66.8277C6.41 70.71 6.29747 71.7406 5.43948 75.7922C4.39863 80.6627 4.13138 82.3568 4.03292 84.8273C3.9626 86.4649 3.99073 86.9308 4.25797 88.1449C4.41269 88.9213 4.60961 89.8531 4.66587 90.2201C4.75027 90.7566 4.93312 91.053 5.56606 91.7448C6.78976 93.0577 8.70267 96.587 9.11057 98.267C9.16684 98.4788 9.46221 98.9446 9.75759 99.2834C10.5453 100.173 10.8125 101.373 11.0797 105.057C11.2907 108.064 11.4876 109.25 11.994 110.634C12.9223 113.133 15.0181 116.027 17.0857 117.65C18.1125 118.455 19.8566 119.415 20.3067 119.415C20.4614 119.415 20.6162 119.612 20.7287 119.937C20.9537 120.629 21.3194 121.222 22.6697 123.001C24.3154 125.175 24.5545 125.965 24.7936 130.214C24.878 131.683 24.9765 133.024 25.0327 133.165C25.2015 133.744 29.0977 138.473 31.6435 141.198C33.1767 142.835 33.4298 142.977 35.2302 143.089C36.4539 143.174 36.468 143.174 37.2697 143.866C37.7198 144.247 38.7466 144.981 39.5343 145.504C45.2308 149.202 46.3139 150.049 46.3139 150.798C46.3139 151.362 46.6092 151.997 47.2563 152.816C48.0017 153.748 48.2971 154.327 48.4096 155.089L48.494 155.724L49.4786 156.035C50.4913 156.374 51.6025 156.854 55.5268 158.703C58.9025 160.284 60.6185 160.778 62.7705 160.778C64.2474 160.778 64.7538 160.637 65.8227 159.946C66.962 159.211 67.2011 159.155 67.8482 159.451L68.3967 159.691L68.7906 159.324C69.1422 158.986 69.2969 158.943 70.0986 158.943C72.0116 158.943 73.2071 159.578 74.7403 161.428C76.6954 163.785 77.2299 164.138 79.4381 164.618C81.0557 164.957 84.6283 165.084 88.7214 164.943L91.8158 164.844L93.2224 163.461C94.9383 161.781 95.5713 161.498 97.7374 161.386C100.1 161.258 102.801 161.809 104.967 162.868C105.544 163.15 106.078 163.362 106.149 163.334C106.233 163.32 108.132 163.249 110.368 163.178C114.743 163.037 115.615 162.938 117.331 162.402C118.737 161.95 119.764 161.258 121.424 159.649C122.985 158.124 123.801 157.56 125.151 157.08C126.994 156.402 128.245 156.19 130.285 156.204C131.987 156.204 132.296 156.247 133.281 156.586L134.392 156.967L135.953 156.063C138.119 154.807 140.426 153.72 142.592 152.929C144.885 152.11 145.616 151.729 146.418 150.995C147.248 150.233 147.417 149.866 147.642 148.327C147.754 147.607 147.895 146.887 147.951 146.732C148.204 146.012 149.147 145.009 150.652 143.809C151.552 143.089 153.015 141.819 153.887 140.972C155.758 139.165 156.63 138.671 157.685 138.812C159.766 139.108 159.372 139.25 161.651 137.414C166.518 133.476 168.107 131.542 168.965 128.45C169.275 127.335 169.359 125.259 169.176 123.735C169.092 123.071 169.12 122.916 169.443 122.436C169.64 122.125 170.259 120.897 170.808 119.697C171.849 117.424 172.721 115.956 173.438 115.278C173.663 115.067 174.507 114.558 175.309 114.149C176.926 113.344 176.842 113.429 178.347 110.803C180.682 106.709 181.765 103.335 181.765 100.13C181.765 98.4223 181.568 97.6317 180.668 95.8529L179.866 94.2436V92.8177C179.88 90.9825 180.105 90.2625 181.905 86.5214C183.439 83.3309 183.846 82.1168 183.973 80.2956C184.086 78.5592 183.846 77.3169 183.242 76.5687C182.426 75.5805 181.948 74.324 181.357 71.6982C180.752 68.9171 180.611 68.5218 179.838 67.3642C179.528 66.9124 178.361 64.6678 177.236 62.3808C174.479 56.8044 171.891 52.5128 168.571 48.0235C167.727 46.88 167.418 46.5553 167.08 46.4847C166.447 46.3576 165.308 45.6941 163.93 44.6353C162.382 43.4495 161.637 43.1106 159.963 42.8283C158.107 42.5177 157.516 42.2636 156.545 41.3742C156.025 40.8942 155.279 40.4001 154.562 40.0613C153.479 39.5531 152.762 39.3272 148.655 38.1696L146.854 37.6614L145.982 36.7861C144.716 35.5014 143.703 34.9932 139.653 33.5673C136.811 32.5791 135.967 32.198 134.842 31.4356L133.97 30.8568L133.886 29.9674C133.759 28.7251 133.225 26.9604 132.296 24.7017C130.215 19.6335 129.807 18.3912 129.582 16.3866C129.427 15.0736 129.624 13.436 130.018 12.589C130.299 12.0102 130.426 11.8973 132.128 10.8526C132.662 10.5279 132.887 10.2596 133.253 9.49731C133.675 8.63615 133.731 8.38204 133.773 7.11148L133.829 5.67151L132.479 5.29035C131.748 5.07859 129.722 4.42919 128.006 3.85038C122.014 1.81749 120.003 1.25279 117.063 0.744571C115.39 0.448108 111.929 0.391638 108.343 0.603398C106.191 0.730454 106.149 0.716337 105.08 0.349287C103.715 -0.116585 102.52 -0.116585 99.4112 0.349287ZM117.19 2.52335C119.272 2.94687 120.847 3.48333 125.151 5.20564C127.247 6.03857 129.469 6.89972 130.116 7.11148L131.284 7.49265L130.608 8.21263C128.4 10.5843 127.247 13.4219 127.359 16.1748C127.402 17.3607 127.444 17.5159 128.358 19.5065C129.427 21.85 129.483 22.0476 130.369 26.0993C131.256 30.2074 131.776 31.7038 132.789 33.1015C133.14 33.5814 133.351 33.7085 134.097 33.9203C135.475 34.3155 138.373 35.2332 139.709 35.7273C141.087 36.2214 143.507 37.252 143.507 37.3508C143.507 37.379 143.408 37.6049 143.282 37.8308C143.169 38.0708 143.085 38.2825 143.113 38.3108C143.141 38.339 143.76 38.5084 144.519 38.706C145.265 38.9178 146.756 39.3978 147.825 39.8072C151.088 41.0213 153.648 41.8824 154.576 42.066C155.322 42.2212 155.462 42.2918 155.462 42.5318C155.462 42.7012 155.659 43.0259 155.884 43.28C156.194 43.633 156.475 43.76 157.136 43.8871C159.133 44.2541 160.821 45.0871 164.014 47.3176C165.196 48.1364 166.293 48.8564 166.433 48.8987C166.588 48.9411 167.024 49.5623 167.432 50.2822C167.84 51.0022 169.697 53.868 171.567 56.6774C175.379 62.3667 176.715 64.8231 177.587 67.7454C178.094 69.4394 178.53 71.6559 178.53 72.5594V73.0817L176.954 72.3758C167.474 68.1548 160.568 63.6231 145.546 51.7787C143.071 49.8305 139.653 47.1764 137.951 45.8917C134.955 43.633 134.547 43.2236 134.913 42.8565C135.236 42.5318 135.011 42.3624 133.534 41.7836C132.704 41.4589 131.734 40.993 131.396 40.753L130.777 40.3013L131.382 40.1601C133.661 39.666 138.401 42.1083 145.251 47.3035C148.233 49.5623 150.652 51.2563 151.918 51.9481C152.185 52.1034 152.354 52.3292 152.41 52.6257C152.466 52.9081 152.748 53.2892 153.17 53.6704C153.535 53.9951 154.182 54.6163 154.618 55.0539C155.04 55.4774 155.715 56.0139 156.095 56.2397C157.375 56.9738 159.147 58.1597 161.862 60.0373C165.899 62.8325 167.291 63.7078 169.542 64.8372C171.356 65.7548 174.676 67.0113 174.83 66.8418C174.859 66.8136 174.676 66.5454 174.423 66.2489C173.93 65.6842 172.636 64.9925 171.778 64.8513C171.37 64.7807 171.103 64.5972 170.583 63.9901C169.739 63.0019 168.698 62.3102 167.643 62.042C167.108 61.9008 166.56 61.6184 166.096 61.2514C164.647 60.0938 160.948 57.2985 158.416 55.4633C152.044 50.8046 148.289 47.7129 145.87 45.0729C145.56 44.7341 145.223 44.4518 145.124 44.4518C144.772 44.4518 142.156 43.0401 140.412 41.9107C138.077 40.386 136.108 39.4401 134.561 39.059C133.422 38.7766 133.253 38.6919 132.676 38.099C131.748 37.1249 130.777 36.4614 128.063 34.9367C124.743 33.0591 123.351 31.8874 122.577 30.3062C122.436 29.9815 121.916 29.4874 121.199 28.951C118.217 26.7346 116.388 24.377 111.508 16.4289C108.877 12.1372 106.556 9.15849 105.867 9.15849C105.276 9.15849 104.531 8.76321 103.771 8.04322C102.97 7.28089 102.337 7.08325 101.282 7.25265C100.1 7.43618 99.3268 7.78911 97.7655 8.84791C95.8245 10.1467 95.079 10.4573 93.8412 10.4573C92.7019 10.4573 92.2237 10.2596 90.789 9.18673C89.4528 8.19851 88.3838 7.64794 87.3711 7.46441C86.274 7.25265 85.641 7.42206 84.4736 8.22675C83.8969 8.62203 83.1092 9.13026 82.7295 9.37025C82.1528 9.72318 81.8574 10.0761 81.0276 11.4173C80.4087 12.3914 79.6351 13.4078 79.0865 13.9584C78.4958 14.5372 78.0597 15.116 77.905 15.5113C76.8782 18.1512 75.5561 19.69 71.4208 22.9935C68.8749 25.0264 67.7638 26.0287 66.948 27.0169C66.5119 27.5392 65.9071 28.0616 65.3445 28.3863C63.4738 29.4733 61.364 31.1674 58.5368 33.8073C53.6983 38.3531 52.9387 38.9178 48.916 40.993C46.131 42.4189 44.2744 43.5765 43.557 44.3247L43.1491 44.7624L43.7117 44.6635C44.851 44.4659 45.9904 44.1271 47.1578 43.6471C49.5208 42.673 51.2087 41.6001 55.8081 38.099C57.51 36.8002 59.3807 35.4308 59.9574 35.0355C60.5341 34.6402 61.9688 33.4403 63.1222 32.3815C67.9185 27.9769 71.041 25.6334 74.262 23.9958C75.1763 23.544 75.4154 23.3464 75.6967 22.8382C76.7376 20.9323 78.3692 18.5889 79.8179 16.8807C80.3243 16.2736 80.9713 15.2431 81.562 14.0854C83.1796 10.909 84.558 9.76554 87.0335 9.61025L88.201 9.53966L89.059 10.2596C90.7187 11.6573 91.9143 12.1231 93.785 12.1372C95.5291 12.1514 95.9792 11.982 98.075 10.5702C99.2565 9.77965 99.9738 9.44084 100.494 9.44084C100.86 9.44084 100.733 9.83612 100.072 10.8243C99.805 11.2196 99.6222 11.6008 99.6644 11.6431C99.8472 11.8267 100.607 11.3749 100.972 10.8667C101.183 10.5843 101.38 10.3302 101.394 10.302C101.479 10.2032 101.873 10.5985 101.873 10.7961C101.873 10.8949 101.605 11.2761 101.282 11.6573L100.705 12.3349L101.465 12.4478C101.887 12.5043 102.632 12.5043 103.124 12.4619C104.109 12.3631 104.053 12.2925 103.757 13.2525C103.645 13.5913 103.729 13.5913 104.601 13.3372C105.347 13.1113 105.614 13.1537 105.825 13.5631C106.022 13.9301 105.755 14.2407 105.248 14.2407C104.419 14.2407 104.686 15.116 105.67 15.6101C106.331 15.9489 107.203 16.0336 107.654 15.7936C108.005 15.596 108.005 15.8219 107.64 16.1466C107.33 16.4289 107.274 16.8524 107.513 17.0077C107.597 17.0501 107.907 16.9795 108.202 16.8524C109.271 16.3724 109.482 16.9795 108.54 17.8548C108.033 18.3347 107.921 18.8147 108.287 18.9559C108.526 19.0547 109.187 18.7441 109.454 18.4195C109.679 18.1512 110.171 18.123 110.171 18.363C110.171 18.4618 109.932 18.6736 109.637 18.8289C109.229 19.0547 109.13 19.1959 109.159 19.4641C109.201 19.9018 109.215 19.9159 109.96 19.9865C110.678 20.0712 110.79 20.3253 110.242 20.6782C109.538 21.13 109.96 21.6241 110.72 21.2429C111.268 20.9465 111.986 20.9465 112.098 21.2429C112.14 21.37 112.014 21.6382 111.733 21.9205C111.015 22.6688 111.184 22.9229 112.408 22.9229C113.364 22.9229 113.603 23.1911 113.153 23.7699C112.844 24.1652 112.745 24.744 112.956 24.8852C113.027 24.9275 113.378 24.8569 113.758 24.744C114.546 24.5181 115.024 24.5887 114.883 24.9417C114.489 25.9722 114.827 26.5228 115.854 26.5228C116.43 26.5228 116.487 26.551 116.571 26.9604C116.627 27.2004 117.176 28.1463 117.795 29.0639C118.667 30.3627 118.934 30.8709 118.99 31.365C119.061 31.9015 119.131 32.0144 119.567 32.2544C119.834 32.3956 120.228 32.6779 120.453 32.8897C120.805 33.2285 120.833 33.3132 120.763 34.0897C120.636 35.4449 120.861 35.939 122.211 37.4214C123.041 38.3108 123.745 39.2848 124.42 40.4283C124.954 41.3601 125.84 42.8706 126.375 43.7742C128.034 46.6258 129.385 48.1364 134.505 52.8516C136.98 55.1386 139.132 57.2844 140.482 58.7809C142.845 61.4349 144.111 62.5784 145.419 63.256C146.249 63.6937 146.348 63.7925 146.784 64.6678L147.234 65.6278H147.979C148.725 65.6278 148.725 65.6278 148.978 66.2348C149.119 66.5595 149.287 67.0395 149.344 67.2936C149.442 67.7454 149.442 67.7454 150.314 67.7454C151.636 67.7454 151.833 68.0842 151.032 68.9171C150.764 69.1994 150.539 69.4818 150.539 69.5665C150.539 69.7924 151.003 69.863 151.524 69.7218C152.326 69.4959 153.071 69.5383 153.071 69.8206C153.071 69.9477 153.141 70.2724 153.24 70.5265C153.395 70.9641 153.451 70.9923 154.112 70.9923C154.759 70.9923 154.843 71.0347 155.448 71.6982C155.94 72.2347 156.236 72.4323 156.63 72.5029C157.052 72.5594 157.15 72.6299 157.08 72.8135C156.798 73.4911 156.7 73.844 156.784 73.9146C156.939 74.0699 157.685 73.9711 158.149 73.7311C158.613 73.5052 158.613 73.5052 158.936 73.9005C159.372 74.4511 159.344 74.6628 158.768 75.1287C158.5 75.3405 158.275 75.5805 158.275 75.6652C158.275 75.764 158.782 75.7922 159.682 75.764C160.456 75.7358 161.088 75.7358 161.088 75.764C161.088 75.7922 160.92 76.0322 160.709 76.3004C160.399 76.724 160.371 76.8228 160.54 76.9357C160.948 77.204 161.426 77.2322 162.157 77.0345C163.297 76.7099 163.564 77.1616 162.706 77.9663C162.439 78.2345 162.214 78.5451 162.214 78.6722C162.214 78.8698 162.312 78.898 162.889 78.8274C163.494 78.7427 163.606 78.7851 164.253 79.2369C164.788 79.6321 165.097 79.7451 165.547 79.7451H166.124L166.068 80.2674C165.969 81.0721 166.11 81.185 166.898 80.9168C167.46 80.7333 167.657 80.7192 168.192 80.8745C168.937 81.0862 169.823 81.9756 170.076 82.7521L170.259 83.2744H171.159C172.13 83.2744 172.214 83.3591 171.891 84.0509C171.806 84.2485 171.778 84.4461 171.82 84.5026C171.975 84.6579 172.721 84.5732 173.143 84.3614C173.354 84.2485 173.705 84.1214 173.93 84.065C174.31 83.9803 174.31 83.9803 174.31 84.6438V85.3214H175.759C177.039 85.3214 177.278 85.3638 177.897 85.6885L178.6 86.0555L178.558 87.0296C178.544 87.5661 178.361 88.7802 178.178 89.7401C177.7 92.0695 177.63 92.9306 177.812 93.9189C177.897 94.3847 177.939 94.7941 177.897 94.8224C177.77 94.9494 176.026 94.1165 174.985 93.4389C174.423 93.0577 173.143 92.0695 172.13 91.2507C169.95 89.4296 168.965 88.7519 167.727 88.1731C167.01 87.8484 166.419 87.3967 165.238 86.2532C164.394 85.4202 162.143 83.4579 160.245 81.8627C156.489 78.7145 153.577 75.891 152.368 74.2393C151.946 73.6464 150.736 72.3758 149.625 71.3594C141.34 63.6937 134.884 57.0727 130.229 51.4399C125.024 45.1576 120.481 38.2402 117.246 31.7038C116.67 30.5462 116.177 29.6286 116.149 29.6568C116.051 29.7557 116.501 31.7603 116.866 32.8756C117.373 34.3861 118.428 36.5602 120.552 40.3719C124.096 46.7811 126.009 49.5764 129.202 53.021C130.004 53.8963 130.819 54.9127 131.03 55.308C131.537 56.2115 146.052 70.8653 148.725 73.1523C149.78 74.0558 150.793 75.0299 150.975 75.3264C152.494 77.8534 155.054 80.338 160.245 84.3332C162.706 86.2249 164.844 88.0319 165.927 89.1472C166.335 89.5707 166.771 89.9095 166.912 89.9095C167.038 89.9095 167.573 90.1354 168.107 90.4036C168.628 90.6719 169.134 90.8978 169.232 90.8978C169.331 90.8978 169.753 91.2366 170.161 91.6601C170.569 92.0695 171.441 92.733 172.088 93.1283C173.565 94.0177 174.521 94.8647 174.887 95.5706C175.084 95.9659 175.252 96.1212 175.492 96.1212C176.012 96.1212 177.489 96.94 177.981 97.5047C179.852 99.6364 179.669 103.999 177.517 108.135C176.757 109.617 175.703 110.944 175.309 110.944C174.957 110.944 174.634 110.535 174.521 109.956C174.451 109.561 174.254 109.335 173.565 108.827C170.54 106.61 166.251 102.502 160.034 95.8388C158.177 93.8624 155.476 91.053 154.028 89.6131C152.565 88.1731 151.383 86.9308 151.383 86.8602C151.383 86.5637 150.047 84.6861 149.006 83.5567C147.375 81.7638 146.46 80.6345 144.899 78.5451C143.521 76.6957 142.142 75.0722 139.484 72.1923C136.432 68.8606 134.884 66.7571 133.689 64.2584C133.098 63.0161 132.859 62.6914 132.001 61.8867C130.637 60.6161 129.427 59.0632 126.923 55.3362C125.742 53.5857 124.406 51.6798 123.941 51.101C123.323 50.3105 122.83 49.4352 122.113 47.8399C121.578 46.64 119.651 42.6589 117.837 39.0025C115.193 33.6944 114.532 32.2544 114.532 31.8027C114.532 31.1674 114.25 30.6874 113.828 30.5745C113.575 30.5039 113.547 30.5745 113.547 31.1956C113.547 31.9297 113.955 33.3415 114.349 33.9909C114.475 34.1885 114.771 34.5555 114.982 34.7955C115.305 35.1485 115.488 35.6285 115.868 37.1249C117.288 42.7859 118.906 46.1035 124.828 55.4774C126.178 57.6091 127.669 60.0373 128.161 60.8985C129.103 62.5784 129.554 63.0866 130.088 63.0866C130.383 63.0866 130.426 63.1431 130.426 63.5949C130.426 63.9901 130.524 64.1878 130.876 64.4701C132.367 65.7407 132.592 66.0089 133.281 67.4348C133.998 68.903 134.73 69.8065 135.306 69.9477C135.56 70.0182 135.602 70.1029 135.531 70.4418C135.363 71.3029 135.813 71.8394 136.685 71.8394C136.994 71.8394 137.036 71.91 137.05 72.4041C137.065 72.7147 137.079 73.0393 137.093 73.1241C137.093 73.1946 137.515 73.604 138.021 73.9993C139.16 74.9311 139.892 75.891 140.201 76.8651L140.44 77.6275H141.101H141.777L141.762 78.2204C141.748 78.7992 141.777 78.8274 142.649 79.4204C143.76 80.1404 143.872 80.3098 143.577 80.8603C143.155 81.7074 143.338 82.0038 144.294 82.0038C144.744 82.0038 144.801 82.0603 145.054 82.625C145.349 83.3168 145.757 83.6132 146.263 83.5144C146.685 83.4438 146.685 83.4862 146.249 84.0085C146.052 84.2344 145.926 84.4744 145.968 84.545C145.996 84.6014 146.376 84.8273 146.812 85.0249C147.642 85.4344 147.909 85.9002 147.6 86.3943C147.515 86.5355 147.445 86.6767 147.445 86.6908C147.445 86.719 147.923 86.7049 148.514 86.6908C149.513 86.6484 149.583 86.6626 149.484 86.9026C149.414 87.0437 149.358 87.4108 149.358 87.7214C149.344 88.2861 149.344 88.2861 150.455 88.879C151.876 89.6554 152.185 89.9378 152.298 90.6719C152.424 91.3777 152.551 91.5472 153.226 91.886C153.577 92.0695 153.887 92.4083 154.182 92.9448C154.548 93.5942 154.745 93.7777 155.293 94.0177C156.362 94.4553 156.377 94.4694 156.334 95.1188C156.292 95.6412 156.334 95.7118 156.742 95.9659C156.995 96.1212 157.389 96.2906 157.6 96.3329C158.008 96.4317 158.078 96.5306 157.867 96.7706C157.685 96.9682 157.572 97.5894 157.685 97.7729C157.741 97.8717 158.191 97.9564 158.697 97.9846C159.752 98.027 159.893 98.2388 159.387 98.9305C158.88 99.6223 159.091 99.8481 160.16 99.7634C161.609 99.6364 161.862 100.003 161.004 100.949C160.357 101.683 160.484 101.81 161.961 101.909C162.636 101.952 163.128 102.05 163.156 102.149C163.184 102.234 163.015 102.53 162.776 102.813C161.946 103.745 162.411 104.196 163.831 103.857C165.238 103.505 165.997 103.928 165.308 104.662C165.139 104.846 165.027 105.1 165.055 105.255C165.097 105.467 165.238 105.509 166.082 105.509C167.038 105.509 167.066 105.523 167.108 105.89C167.137 106.102 167.052 106.455 166.94 106.695C166.813 106.921 166.715 107.246 166.715 107.415C166.715 107.824 167.432 107.796 168.093 107.344C168.698 106.921 168.853 106.907 169.134 107.231C169.359 107.514 169.331 107.697 168.839 108.728C168.585 109.264 168.557 109.448 168.684 109.617C168.979 109.956 169.246 109.843 169.893 109.151C170.372 108.615 170.54 108.516 170.681 108.657C170.766 108.742 170.962 108.827 171.103 108.827C171.427 108.827 171.413 108.954 171.075 109.391C170.709 109.857 170.723 110.196 171.117 110.394C171.286 110.493 171.652 110.761 171.933 111.001C172.2 111.241 172.552 111.509 172.707 111.594C172.96 111.735 172.946 111.777 172.566 112.751C172.045 114.036 171.103 115.518 169.95 116.859C169.12 117.834 169.021 118.017 168.726 119.161C168.557 119.852 168.248 120.671 168.023 120.996C167.657 121.546 166.841 122.238 166.56 122.238C166.49 122.238 165.533 121.01 164.422 119.514C162.143 116.45 161.44 115.617 160.118 114.417C159.344 113.725 159.021 113.274 158.233 111.805C156.883 109.321 155.856 107.81 154.618 106.497C153.901 105.749 153.254 104.846 152.663 103.815C151.468 101.74 149.864 99.3964 146.924 95.4718L144.491 92.2107V91.4483C144.477 90.7001 144.463 90.6578 143.071 88.9213C141.411 86.832 140.553 85.5614 137.951 81.298C135.728 77.6698 133.056 73.5758 131.495 71.4159C130.608 70.1877 130.426 69.8347 130.426 69.3971C130.426 68.6912 130.383 68.6206 126.262 61.7314C120.341 51.821 117.528 46.6964 117.682 46.1035C117.823 45.5247 117.485 43.9859 116.993 42.9695C116.74 42.4189 116.093 41.3742 115.572 40.6401C115.038 39.906 114.349 38.7766 114.011 38.1272C113.491 37.139 113.406 36.8284 113.406 36.1226C113.406 35.3743 113.308 35.092 112.562 33.6238C111.817 32.1415 109.834 29.2051 109.581 29.2051C109.426 29.2051 109.299 30.038 109.398 30.5039C109.454 30.7439 109.693 31.365 109.918 31.8733C110.143 32.3815 110.875 34.1744 111.536 35.8402C112.956 39.4543 113.378 40.3013 114.686 42.2918C115.952 44.2118 116.219 44.833 116.219 45.8212C116.219 47.487 118.259 51.5528 123.534 60.3338C126.923 66.0089 128.442 68.7053 128.864 69.8771C129.174 70.6959 129.399 71.0912 131.199 73.957C131.804 74.9311 132.592 76.2581 132.929 76.9216C133.59 78.1781 142.044 91.2366 147.009 98.6623C154.098 109.278 159.668 116.803 165.097 123.128L166.883 125.217L166.799 125.951C166.419 128.831 165.083 131.217 162.622 133.391C160.779 135.043 159.429 136.073 159.161 136.073C158.782 136.073 158.346 135.551 158.036 134.732C157.882 134.337 157.052 133.08 156.18 131.923C153.381 128.182 151.06 124.582 146.953 117.65C141.523 108.46 140.454 106.695 138.921 104.267C137.529 102.093 137.318 101.683 137.318 101.161C137.318 100.102 136.924 98.7893 136.418 98.1823C134.744 96.107 133.337 93.6224 129.666 86.1685C128.091 82.9779 126.347 79.6321 125.798 78.7286C125.123 77.5992 124.659 76.6251 124.377 75.7216C123.801 73.957 123.21 72.5311 121.072 67.8865C118.653 62.6349 117.893 60.8279 116.248 56.3668C115.474 54.2774 114.208 50.974 113.434 49.0399C110.382 41.3601 110.171 40.7389 109.679 37.6049C109.426 35.9673 108.835 34.5979 108.188 34.132L107.766 33.8356L107.836 34.3014C107.893 34.5697 108.047 35.6002 108.216 36.6167C108.694 39.7084 109.538 43.393 110.439 46.287C111.184 48.687 114.588 58.1456 115.966 61.6043C117.049 64.3572 118.793 67.9006 119.862 69.5383L120.706 70.8512L120.467 71.4864C120.2 72.2205 120.298 72.4888 120.945 72.8276C121.171 72.9405 121.382 73.0535 121.41 73.0676C121.424 73.0817 121.283 73.3217 121.072 73.5899L120.692 74.0981L121.058 74.2393C121.48 74.3946 121.705 74.8746 121.705 75.5946C121.705 76.131 122.113 76.6393 122.549 76.6393C122.704 76.6393 122.83 76.724 122.83 76.8228C122.83 76.9357 122.704 77.1334 122.549 77.2745C122.394 77.4157 122.268 77.6839 122.268 77.8816C122.268 78.2204 122.296 78.2204 122.901 78.1498C123.505 78.0651 123.534 78.0651 123.759 78.5733L124.012 79.0816L123.477 79.5051C122.985 79.9004 122.971 79.9286 123.196 80.1827C123.365 80.3804 123.632 80.4509 124.096 80.4509C124.56 80.4509 124.87 80.5356 125.137 80.7474C125.657 81.1568 125.573 81.5803 124.884 81.9333C124.195 82.3003 123.97 82.625 124.181 82.9497C124.349 83.2038 124.659 83.2321 125.657 83.0485C126.108 82.9779 126.178 83.0062 126.248 83.2885C126.375 83.7544 126.178 83.9944 125.503 84.2485C124.785 84.5167 124.701 84.672 125.039 85.0814C125.292 85.3779 125.306 85.3779 126.037 85.1661C126.445 85.0391 126.825 84.9826 126.867 85.0249C126.909 85.0673 126.839 85.2649 126.712 85.4485C126.431 85.8861 126.417 86.4367 126.698 86.6626C126.811 86.7614 127.162 86.832 127.472 86.832C127.978 86.8178 128.034 86.8602 128.034 87.1708C128.034 87.4955 127.598 88.0743 127.359 88.0743C127.148 88.0743 126.614 88.6531 126.698 88.7802C126.74 88.8507 127.317 89.0766 127.964 89.2743C129.005 89.599 129.174 89.6978 129.258 90.0084C129.329 90.3189 129.258 90.4601 128.907 90.7566C128.386 91.1801 128.358 91.3354 128.71 91.6319C129.103 91.9848 129.525 92.0554 129.779 91.8154C130.004 91.5754 130.285 91.6319 130.285 91.9283C130.285 92.013 130.116 92.253 129.919 92.4648C129.441 92.973 129.554 93.2977 130.215 93.3118C131.424 93.3542 131.579 93.693 130.763 94.5965C130.369 95.0482 130.299 95.1894 130.44 95.3588C130.651 95.6129 131.087 95.6129 131.832 95.3447C132.156 95.2318 132.451 95.1329 132.465 95.1329C132.493 95.1329 132.535 95.2741 132.578 95.4294C132.634 95.6553 132.55 95.8529 132.24 96.1353C131.832 96.5164 131.692 97.1517 131.973 97.3211C132.043 97.3635 132.296 97.307 132.521 97.18C133.14 96.8694 133.422 96.9117 133.703 97.4058L133.956 97.8576L133.379 98.3799C132.986 98.747 132.845 98.9729 132.901 99.1423C133.014 99.4387 133.52 99.6505 134.069 99.6505C134.533 99.6505 134.856 99.9752 134.73 100.286C134.687 100.413 134.42 100.61 134.139 100.723C133.267 101.09 133.801 101.768 134.983 101.768H135.517L135.419 102.7C135.306 103.787 135.377 103.886 136.291 103.886C136.882 103.886 136.882 103.9 136.811 104.309C136.685 104.944 136.84 105.34 137.529 106.159C137.88 106.568 138.162 107.02 138.162 107.175C138.162 107.316 137.965 107.641 137.726 107.881C137.332 108.276 137.304 108.333 137.529 108.488C137.712 108.629 137.88 108.629 138.345 108.46C139.006 108.234 139.371 108.304 139.498 108.686C139.61 109.053 139.498 109.222 138.921 109.462C138.612 109.589 138.443 109.758 138.443 109.928C138.443 110.253 138.64 110.351 139.695 110.577C140.117 110.662 140.482 110.803 140.511 110.888C140.539 110.958 140.342 111.142 140.061 111.269C139.695 111.453 139.568 111.594 139.568 111.862C139.568 112.257 139.639 112.271 140.848 112.229C141.481 112.201 141.65 112.229 141.734 112.441C141.875 112.808 141.72 113.147 141.312 113.33C141.017 113.457 140.961 113.57 141.003 113.951L141.045 114.403L141.931 114.375C142.761 114.332 142.803 114.347 142.803 114.657C142.803 114.841 142.649 115.137 142.452 115.321C142.255 115.504 142.1 115.73 142.1 115.829C142.1 116.041 142.944 116.309 143.633 116.309C144.238 116.309 144.632 116.648 144.632 117.17C144.632 117.495 144.533 117.622 144.154 117.777C143.9 117.89 143.633 118.045 143.577 118.144C143.408 118.427 143.872 118.737 144.66 118.864C145.954 119.076 146.137 119.838 145.026 120.361C144.308 120.699 144.154 121.052 144.576 121.405C144.758 121.561 144.955 121.532 145.771 121.25C146.671 120.939 146.756 120.925 146.967 121.137C147.276 121.448 147.135 121.758 146.573 121.998C145.996 122.238 145.729 122.563 145.841 122.859C145.94 123.113 146.123 123.142 147.628 123.099L148.711 123.057V123.495C148.711 123.848 148.542 124.116 148.008 124.695C147.22 125.528 147.009 126.149 147.375 126.516C147.642 126.784 147.909 126.699 148.626 126.092C149.077 125.711 149.513 125.711 149.752 126.078C149.963 126.417 149.738 126.756 149.133 127.052C148.556 127.335 148.303 127.673 148.387 128.04C148.5 128.45 148.992 128.506 149.695 128.182C150.455 127.829 150.863 127.815 151.102 128.097C151.369 128.422 151.158 128.958 150.61 129.297C150.061 129.636 149.78 130.059 149.892 130.37C149.991 130.624 150.919 130.624 151.383 130.356C151.777 130.13 152.621 130.087 152.916 130.271C153.254 130.483 152.973 130.836 152.171 131.189C151.369 131.542 151.088 131.965 151.383 132.332C151.608 132.6 152.03 132.6 152.79 132.332C153.113 132.219 153.479 132.12 153.577 132.12C153.929 132.12 153.774 132.53 153.282 132.911C152.888 133.207 152.79 133.377 152.79 133.772C152.79 134.351 153.043 134.478 153.62 134.181C153.845 134.054 154.239 133.956 154.478 133.956C155.082 133.956 155.054 134.464 154.407 135.085C153.915 135.565 153.76 136.059 154.098 136.087C154.323 136.116 154.309 136.116 155.012 135.861C156.25 135.424 156.053 135.791 154.14 137.555C153.141 138.487 151.102 140.435 149.625 141.904C146.657 144.84 146.854 144.741 145.898 143.795C145.265 143.174 144.899 142.454 144.125 140.379C143.76 139.363 142.522 136.694 141.383 134.45C138.879 129.494 138.302 128.139 137.247 124.85C136.347 121.984 135.869 120.756 133.07 114.05C130.594 108.093 129.047 104.535 127.767 101.853C127.219 100.695 126.572 99.114 126.333 98.3235C125.348 95.0906 124.462 92.6765 122.127 86.8037C121.185 84.432 119.919 81.1568 119.3 79.5192C118.695 77.8816 117.935 75.8769 117.612 75.0722C116.641 72.6299 116.093 70.8935 115.572 68.5218C114.883 65.3454 114.7 64.7242 112.97 59.5573C112.126 57.0303 111.156 53.868 110.818 52.5269C110.34 50.6775 109.96 49.5905 109.243 48.0093C108.399 46.1459 108.202 45.5106 107.274 41.7977C106.134 37.2096 105.516 35.1908 104.7 33.525C104.123 32.325 104.095 32.325 103.912 33.5956C103.743 34.9085 104.193 36.6873 105.389 39.4543C106.5 41.9954 106.796 42.9553 106.95 44.593C107.232 47.6705 107.358 48.3905 108.047 50.5928C108.427 51.8351 109.257 54.6021 109.89 56.7338C110.523 58.8656 111.395 61.6326 111.817 62.8749C114.968 72.0794 116.135 75.7922 117.26 80.1404C117.767 82.1168 118.076 82.9497 119.131 85.2508C124.265 96.3612 126.262 101.288 129.722 111.297C131.734 117.114 133.829 121.97 134.73 122.859C135.18 123.325 135.349 123.65 135.545 124.426C136.333 127.405 137.838 131.005 140.862 137.203C142.93 141.424 144.772 145.56 145.265 147.071C145.56 147.988 145.476 148.214 144.393 149.202C143.492 150.021 141.861 150.882 139.02 152.012C136.755 152.929 135.672 153.437 135.039 153.889C134.645 154.157 134.645 154.157 134.223 153.861C133.703 153.494 133.408 152.929 132.775 151.108C132.507 150.332 131.635 148.016 130.848 145.955C126.951 135.805 125.32 130.694 124.223 125.132C123.913 123.495 123.393 122.238 123.041 122.238C122.929 122.238 122.83 122.196 122.83 122.153C122.83 121.899 120.664 112.328 120.313 111.015C120.087 110.154 119.609 108.375 119.258 107.062C118.47 104.168 118.484 104.196 116.824 100.159C115.207 96.2341 114.714 94.7659 113.955 91.5189C113.631 90.1213 113.027 87.5519 112.619 85.7873C112.197 84.0226 111.479 80.6203 111.001 78.2345C110.537 75.8487 109.974 72.9264 109.735 71.7688C109.51 70.5971 108.723 67.2089 107.991 64.216C106.12 56.5644 104.742 50.014 103.265 41.953C102.998 40.5272 102.745 39.3695 102.688 39.3695C102.492 39.3695 102.576 44.5506 102.787 46.6823C103.307 51.6375 104.672 59.2467 105.867 63.736C107.049 68.1689 107.203 68.9312 107.429 71.6982C107.654 74.3523 107.752 74.804 108.329 75.5099C108.694 75.9758 108.723 76.0463 108.54 76.371C108.301 76.8087 108.287 77.6557 108.54 78.2345C108.638 78.4886 108.976 79.011 109.285 79.4063C109.792 80.0415 109.834 80.1404 109.665 80.3804C109.271 80.9168 109.426 81.7215 110.228 83.2744L110.987 84.7426L110.65 85.0108C110.199 85.3496 110.228 85.4626 110.804 86.112C111.339 86.7049 111.437 87.2414 111.086 87.7072C110.776 88.1308 110.832 88.4413 111.297 88.8225C111.817 89.2601 111.831 89.5284 111.367 89.8248C110.692 90.2625 110.959 90.7283 112.014 90.9542C112.745 91.1095 112.576 92.0836 111.817 92.1965C111.648 92.2248 111.493 92.3518 111.465 92.493C111.423 92.6765 111.62 92.8318 112.197 93.1001C113.406 93.6506 113.519 94.2294 112.478 94.5683C112.197 94.6671 111.929 94.8647 111.873 95.0482C111.676 95.5706 111.831 95.7259 112.619 95.6835C113.027 95.6694 113.434 95.6976 113.519 95.7541C113.842 95.9518 113.688 96.4459 113.111 96.9541C112.464 97.5611 112.52 97.6882 113.547 97.9564C114.785 98.267 114.982 98.747 114.11 99.3258C113.35 99.8199 113.266 99.9187 113.266 100.272C113.266 100.681 113.491 100.78 114.391 100.78C115.629 100.78 115.952 101.627 114.954 102.262C114.644 102.46 114.391 102.714 114.391 102.827C114.391 102.94 114.757 103.222 115.221 103.448C115.671 103.688 116.079 103.97 116.135 104.097C116.29 104.535 116.219 104.733 115.91 104.733C114.996 104.747 114.503 105.283 114.897 105.848C115.08 106.102 115.249 106.144 116.023 106.144C116.895 106.144 116.923 106.159 116.923 106.497C116.923 106.751 116.768 106.949 116.36 107.203C115.868 107.514 115.812 107.599 115.938 107.839C116.135 108.206 116.627 108.516 117.176 108.629C117.795 108.756 117.809 109.278 117.204 109.533C116.684 109.758 116.501 110.055 116.599 110.563C116.67 110.93 116.712 110.944 117.485 110.944C118.273 110.944 118.315 110.973 118.526 111.382C118.793 111.918 118.751 112.003 118.006 112.37C116.698 113.034 116.684 113.485 117.964 113.485C118.751 113.485 119.131 113.683 119.201 114.107C119.229 114.332 119.131 114.417 118.653 114.516C118.118 114.615 118.048 114.671 118.048 115.024C118.048 115.49 118.203 115.645 118.92 115.871C119.384 116.027 119.595 116.252 119.595 116.605C119.595 116.676 119.342 116.732 119.019 116.732C118.484 116.732 118.456 116.747 118.498 117.128C118.526 117.438 118.695 117.594 119.384 117.932C119.862 118.172 120.242 118.469 120.27 118.61C120.341 118.977 120.045 119.274 119.581 119.274C119.272 119.274 119.173 119.344 119.173 119.542C119.173 119.895 119.469 120.121 120.073 120.219C120.355 120.262 120.58 120.318 120.58 120.346C120.58 120.375 120.481 120.615 120.355 120.883C120.017 121.575 120.172 122.026 120.861 122.323C121.607 122.662 121.635 123.128 120.931 123.466C120.439 123.706 120.172 124.186 120.369 124.483C120.411 124.568 120.749 124.638 121.114 124.638C122.029 124.638 122.38 124.765 122.493 125.104C122.563 125.33 122.479 125.499 122.141 125.796C121.789 126.12 121.564 126.191 121.002 126.191C120.341 126.191 120.298 126.219 120.298 126.558C120.298 127.01 120.974 127.32 122.029 127.32C122.465 127.32 122.887 127.405 123.055 127.518C123.294 127.716 123.308 127.744 123.098 127.956C122.985 128.083 122.661 128.295 122.394 128.422C121.86 128.69 121.705 129.142 122.057 129.438C122.183 129.537 122.605 129.692 122.999 129.777C123.674 129.932 123.702 129.96 123.477 130.186C123.337 130.313 123.069 130.469 122.858 130.511C122.141 130.666 121.846 130.836 121.846 131.132C121.846 131.429 122.366 131.739 123.126 131.894C123.477 131.965 123.505 132.021 123.477 132.713C123.463 133.433 123.463 133.433 124.096 133.814C124.94 134.309 124.926 134.633 124.04 135.085C123.224 135.494 123.126 135.664 123.519 136.059C123.759 136.299 123.998 136.356 124.659 136.356C125.461 136.356 125.503 136.37 125.503 136.708C125.503 136.977 125.376 137.118 124.982 137.301C124.42 137.57 124.237 138.05 124.504 138.473C124.631 138.657 124.715 138.657 125.109 138.487C125.967 138.134 126.136 138.191 126.178 138.854C126.22 139.334 126.164 139.475 125.925 139.602C125.77 139.687 125.503 139.715 125.362 139.673C125.165 139.602 125.081 139.645 125.081 139.814C125.081 140.167 125.7 140.704 126.304 140.859C126.6 140.944 126.966 141.099 127.12 141.212C127.373 141.395 127.373 141.424 127.148 141.762C127.022 141.96 126.614 142.299 126.248 142.511C125.868 142.722 125.559 142.92 125.531 142.934C125.503 142.948 125.559 143.104 125.643 143.273C125.798 143.555 125.897 143.569 126.881 143.527L127.964 143.485V144.049C127.964 144.586 127.95 144.614 127.303 144.798C126.431 145.038 126.389 145.405 127.191 145.814C127.795 146.125 128.245 146.181 128.386 145.955C128.527 145.729 128.878 146.068 128.78 146.322C128.738 146.421 128.499 146.647 128.231 146.816C127.289 147.395 127.753 148.355 128.977 148.355C129.765 148.355 129.779 148.638 128.991 149.442C128.245 150.205 128.386 150.416 129.694 150.543C131.016 150.67 131.227 150.727 131.326 150.981C131.565 151.616 130.932 152.026 129.75 152.026C129.132 152.026 129.132 152.026 129.329 152.35C129.455 152.52 129.891 152.788 130.355 152.943C130.805 153.099 131.199 153.296 131.227 153.381C131.298 153.579 129.75 154.002 127.162 154.496C124.293 155.033 122.127 155.795 121.578 156.459C121.466 156.586 121.339 156.684 121.283 156.684C121.114 156.684 120.355 155.019 119.961 153.79C119.426 152.181 118.962 149.753 118.47 146.026C117.739 140.52 117.246 137.923 116.641 136.13C116.304 135.156 116.29 134.478 116.585 134.238C117.092 133.8 117.092 133.574 116.585 132.29C115.376 129.255 114.743 126.12 113.758 118.497C112.802 111.1 112.436 109.039 111.156 104.239C109.806 99.1281 109.384 97.0247 109.243 94.5683L109.145 93.0436L109.524 92.6765L109.918 92.3236L109.37 92.0413C109.06 91.886 108.737 91.6742 108.638 91.5613C108.357 91.2083 105.797 76.1734 104.545 67.463C103.856 62.6631 103.392 59.7973 101.662 49.7458C100.157 40.9789 99.7628 37.7602 99.805 34.8238L99.8331 32.7626L99.4112 32.1556C98.7501 31.2239 98.6376 31.2803 98.6376 32.4944C98.6376 40.4989 101.057 59.2467 104.7 79.3216C106.725 90.5307 106.725 90.5025 107.625 93.34C108.483 96.0082 108.596 96.6011 108.694 99.1987C108.807 101.937 109.13 103.773 110.298 108.657C111.508 113.655 111.634 114.361 112.759 121.815C114.391 132.501 116.402 144.459 118.329 154.708C118.709 156.769 119.033 158.491 119.033 158.548C119.033 158.703 117.626 159.466 116.445 159.931C113.111 161.273 109.257 161.569 106.289 160.694L105.572 160.496L105.487 156.995C105.192 145.941 104.165 135 100.944 108.827C100.269 103.293 99.4252 95.9659 98.8345 90.4036C98.3985 86.3943 98.3141 85.0391 98.2156 80.5921C98.1593 77.7122 97.9765 73.8158 97.8077 71.7688C96.7528 58.6115 96.6403 56.7621 96.5981 52.4987C96.5559 48.1082 96.5137 47.1764 96.1761 44.3106C95.9229 42.2212 95.6276 40.7248 95.1493 39.2425C94.6992 37.8025 94.6711 37.8731 94.4179 41.0777C94.1507 44.5788 94.2913 48.5882 94.7555 50.5928C95.2056 52.4987 95.2056 52.6539 94.7696 53.0633C94.3617 53.4445 94.3335 53.7127 94.6289 54.6868C94.7836 55.1809 94.8399 55.9715 94.8258 57.4115C94.8258 59.2891 94.8399 59.5008 95.1634 60.1361L95.501 60.8279H95.1212C94.2632 60.8279 94.1929 61.6043 95.0227 61.9996C95.4025 62.1972 95.5432 62.3525 95.5432 62.5925C95.5432 63.0019 95.2056 63.369 94.8258 63.369C94.4742 63.369 94.4882 63.4255 94.9805 64.1454C95.5713 65.0066 95.5713 65.3172 95.0087 65.7125L94.5445 66.0372L95.2478 66.5454C95.6416 66.8277 95.9651 67.096 95.9651 67.1383C95.9651 67.1665 95.7119 67.463 95.3884 67.7736L94.8118 68.3383L95.2619 68.7194L95.6979 69.0865L95.4728 69.8206C95.2619 70.5123 95.2759 70.5688 95.5432 71.0206C95.6979 71.2747 95.8948 71.8111 95.9792 72.2205C96.1339 72.8841 96.1198 72.997 95.8948 73.2511C95.7541 73.4064 95.5572 73.5335 95.4447 73.5335C95.304 73.5335 95.3322 73.6887 95.5713 74.1264C95.8526 74.6628 95.8948 75.0158 95.9651 77.204C96.0355 79.4486 96.0636 79.731 96.359 80.2251C96.7528 80.8886 96.6825 81.1568 96.1058 81.1568C95.4728 81.1568 95.5291 81.6791 96.2464 82.3285C96.9778 82.9779 97.006 83.4156 96.3308 83.4156C96.0636 83.4156 95.7963 83.4862 95.7541 83.5709C95.6979 83.6415 95.9229 84.1073 96.2324 84.5732C97.006 85.7308 96.9778 86.1402 96.1058 86.2673C95.8385 86.2955 95.7541 86.3943 95.7541 86.6484C95.7541 86.9167 95.9089 87.0861 96.3871 87.3684C97.3717 87.9472 97.5545 88.9213 96.6684 88.9213C96.1058 88.9213 96.0073 89.2178 96.373 89.8107C96.7809 90.4742 96.7528 90.7425 96.2464 90.9119C96.0214 90.9966 95.8245 91.1236 95.8245 91.1942C95.8245 91.406 96.3449 91.8577 96.9638 92.1683L97.5405 92.4789L97.1888 92.8459C96.4152 93.6647 96.4434 94.2577 97.2732 94.5683C97.8218 94.7659 97.7233 95.1329 97.0482 95.4718C96.359 95.8106 96.3871 96.22 97.1185 96.6153C97.8358 96.9964 97.8218 97.3494 97.0904 97.6458C96.2886 97.9564 96.359 98.3799 97.231 98.5917C97.7233 98.7187 97.8921 98.8317 98.0046 99.1423C98.1593 99.594 97.9624 99.7917 97.3435 99.7917C96.7809 99.7917 96.8231 100.3 97.4561 101.048L97.9765 101.641L97.5827 102.05L97.2029 102.446L97.4983 102.742C97.6811 102.926 97.9765 103.039 98.2859 103.039C98.6798 103.039 98.7782 103.095 98.7782 103.307C98.7782 103.66 98.4125 104.027 98.075 104.027C97.9343 104.027 97.6952 104.14 97.5264 104.267C97.2732 104.493 97.2592 104.563 97.4139 104.86C97.4983 105.057 97.864 105.41 98.2156 105.65C98.9048 106.13 99.2283 106.737 98.947 107.02C98.8626 107.104 98.4407 107.175 97.9906 107.161C97.3295 107.147 97.217 107.175 97.2873 107.359C97.3295 107.486 97.3717 107.641 97.3717 107.711C97.3717 107.782 97.7233 108.064 98.1453 108.333C98.5672 108.601 98.9892 108.968 99.0736 109.123C99.3268 109.603 99.0314 110.055 98.3281 110.253C97.5827 110.464 97.3717 110.62 97.3717 110.958C97.3717 111.311 97.5686 111.396 98.5532 111.495C99.2705 111.566 99.4112 111.622 99.4534 111.862C99.5237 112.342 99.158 112.667 98.4547 112.737C97.3717 112.864 97.4139 113.316 98.5391 113.74C99.7628 114.205 99.7628 114.756 98.5391 115.052C97.7655 115.25 97.5264 115.617 97.9343 116.027C98.1312 116.224 98.3985 116.309 98.8908 116.309C99.9738 116.309 100.536 116.93 99.9457 117.481C99.805 117.594 99.3268 117.834 98.8767 118.003L98.0609 118.314L98.3985 118.751C98.9329 119.457 99.4252 119.754 100.044 119.768C100.55 119.768 100.607 119.796 100.607 120.135C100.607 120.417 100.508 120.544 100.185 120.671C99.9597 120.756 99.58 120.897 99.3549 120.982C98.4547 121.321 98.7079 121.984 99.8753 122.323C100.311 122.45 100.776 122.633 100.888 122.746C101.197 123.043 100.902 123.396 100.185 123.608C99.4112 123.833 99.2002 124.017 99.2002 124.511C99.2002 125.005 99.3127 125.076 100.34 125.16C101.296 125.259 101.535 125.499 101.38 126.205C101.268 126.685 101.183 126.699 100.311 126.389C99.383 126.05 99.2002 126.163 99.2002 127.095C99.2002 128.125 99.4815 128.45 100.396 128.549C101.648 128.662 101.732 128.704 101.732 129.142C101.732 129.72 101.423 129.89 100.255 129.974C99.2846 130.031 99.2002 130.059 99.2002 130.342C99.2002 130.807 99.5659 131.217 100.325 131.64C101.183 132.106 101.24 132.445 100.536 132.741C99.9457 132.996 99.8472 133.207 100.044 133.744C100.185 134.125 100.227 134.125 100.916 134.054C101.746 133.956 102.154 134.125 102.154 134.577C102.154 135 101.76 135.339 101.155 135.452C100.508 135.579 100.044 135.89 100.044 136.2C100.044 136.596 100.34 136.765 101.254 136.864C102.351 136.991 102.576 137.118 102.576 137.626C102.576 138.12 102.266 138.247 101.38 138.106C100.958 138.05 100.677 138.078 100.536 138.191C100.255 138.431 100.255 139.588 100.55 140.012C100.747 140.28 100.874 140.322 101.366 140.28C103.012 140.097 102.97 140.986 101.31 141.537C100.663 141.748 100.522 141.847 100.494 142.158C100.438 142.666 100.832 142.948 101.83 143.118C102.885 143.287 103.279 143.485 103.279 143.824C103.279 144.247 102.942 144.416 101.887 144.529C100.804 144.642 100.382 144.896 100.522 145.348C100.663 145.772 101.408 146.125 102.379 146.209C103.251 146.28 103.279 146.28 103.279 146.675C103.279 147.198 102.942 147.367 101.957 147.367C101.338 147.367 101.169 147.409 101.169 147.593C101.169 148.016 101.465 148.355 102.154 148.708C102.534 148.892 102.885 149.118 102.928 149.202C103.096 149.485 102.576 149.866 101.901 149.965C100.888 150.106 100.832 150.176 101.183 150.967C101.465 151.588 101.479 151.8 101.394 153.494C101.282 155.597 101.408 156.063 102.252 156.628C102.703 156.939 102.717 156.939 102.463 157.249C102.295 157.447 102.041 157.574 101.76 157.588C101.507 157.588 101.31 157.673 101.31 157.757C101.31 158.026 101.957 158.52 102.618 158.746C102.984 158.873 103.279 159.014 103.279 159.084C103.279 159.141 103.012 159.31 102.688 159.451C102.168 159.663 101.493 159.72 98.2156 159.79C95.9511 159.847 94.1929 159.946 93.9819 160.044L93.6021 160.2L93.4896 156.43C93.4193 154.355 93.3911 144.685 93.4333 134.944C93.5459 106.159 93.5037 87.7355 93.3208 78.3333C93.2224 73.477 93.0817 66.2348 93.0114 62.2396C92.8988 55.4209 92.8707 54.6586 92.3925 50.014C91.9002 45.0306 91.7595 42.1083 91.9565 40.0048C92.069 38.706 91.9002 37.8731 91.4079 37.2943L91.0844 36.9273L90.9859 41.5013C90.8593 47.3882 91.1125 62.409 91.4642 70.837C91.858 80.0415 91.9424 87.6508 91.7455 97.2505C91.5064 108.389 91.5064 108.869 91.7173 112.427C91.9846 116.93 92.0268 151.63 91.7736 154.708C91.5626 157.291 91.0985 161.075 90.8593 162.261L90.6765 163.108L90.0576 163.221C88.8339 163.447 87.1601 163.235 85.2191 162.614C83.4187 162.049 83.3906 162.035 81.4917 162.077C79.7476 162.105 79.5225 162.077 78.9881 161.795C78.6505 161.626 78.3832 161.4 78.3832 161.301C78.3832 161.202 78.5942 160.073 78.8615 158.802C80.7181 149.908 81.5339 141.678 82.5326 122.097C83.2218 108.431 83.4749 104.86 85.205 83.8391C87.0335 61.6749 87.5399 53.501 87.7509 41.8683L87.8493 36.8143L87.4836 36.9837C86.696 37.3508 86.6116 37.6472 86.5975 40.4283C86.5975 42.6165 86.5412 43.2659 86.1896 45.1576C85.8098 47.1623 85.7817 47.6141 85.7676 50.5928C85.7676 53.8398 85.7676 53.8398 85.3879 54.5033L85.0222 55.1668L85.2894 55.6892C85.5285 56.1692 85.5285 56.2256 85.3175 56.3809C85.1347 56.5221 85.1206 56.6774 85.2191 57.3832C85.3738 58.4844 85.3316 58.7103 84.9096 59.1479L84.558 59.515L84.994 59.8679L85.4301 60.2067L85.0644 61.1526C84.6705 62.1972 84.6283 62.7619 84.8815 63.4537C85.0081 63.8349 84.98 64.1313 84.6424 65.4019C84.2345 66.9266 84.2345 67.1383 84.6565 68.2395C84.6986 68.3383 84.5439 68.6489 84.3048 68.9171C84.0657 69.1853 83.8688 69.4536 83.8688 69.4959C83.8688 69.5524 84.0235 69.8065 84.2064 70.0465C84.7971 70.837 84.7971 71.077 84.1923 71.3735C83.5312 71.6841 83.4328 72.1217 83.911 72.6017C84.2204 72.9123 84.2345 72.9688 84.0235 73.1664C83.8688 73.3217 83.7703 73.7452 83.7281 74.4228L83.6578 75.4393L83.1655 75.5946C82.4622 75.8205 82.4763 76.131 83.2218 76.5687C83.5593 76.7663 83.8828 77.0345 83.925 77.1475C83.9672 77.2604 83.8266 77.7263 83.6015 78.1639C82.9264 79.5192 82.8279 79.9427 83.0811 80.4368C83.3906 81.0297 83.3624 81.2839 82.9545 81.4674C82.7576 81.5521 82.6029 81.7356 82.6029 81.8768C82.6029 82.018 82.7576 82.2438 82.9545 82.3709C83.4046 82.6674 83.3906 82.865 82.9405 83.4015C82.5748 83.8391 82.5748 83.8532 82.7998 84.4179C83.0108 84.9402 83.0108 85.0532 82.7998 85.8579C82.6591 86.3943 82.6029 86.9731 82.6591 87.3684C82.842 88.7519 82.842 88.6955 82.3778 88.8507L81.9277 88.9919L82.2653 89.6272C82.617 90.3189 82.7154 91.1519 82.4341 91.1377C81.4636 91.1095 81.4073 91.3072 82.1106 92.3377C82.7013 93.1848 82.7013 93.5518 82.1106 93.8624C81.8855 93.9753 81.6605 94.0883 81.6324 94.1024C81.5058 94.173 82.0543 94.8365 82.3216 94.9212C82.7576 95.0624 82.5888 95.3306 82.0262 95.4153C81.3511 95.5141 81.2948 96.0506 81.8855 96.7282C82.1247 96.9964 82.3216 97.3211 82.3216 97.4341C82.3216 97.7447 81.8715 97.9705 81.6042 97.8011C81.2807 97.5894 81.1963 97.6458 81.1963 98.1258C81.1963 98.4646 81.337 98.6905 81.7871 99.0999C82.3497 99.6364 82.3638 99.6505 82.1106 99.9328C81.9559 100.102 81.6746 100.215 81.3792 100.215C80.9854 100.215 80.915 100.258 80.915 100.554C80.915 100.766 81.0979 101.034 81.4073 101.302C82.0403 101.81 82.1247 102.347 81.5902 102.403C81.3933 102.432 81.0557 102.545 80.8447 102.657L80.4509 102.855L81.0979 103.392C81.773 103.956 82.1387 104.592 81.9699 104.888C81.8996 104.987 81.6464 105.015 81.2526 104.959C80.4087 104.846 80.2118 104.959 80.2118 105.509C80.2118 105.961 80.2539 105.989 80.7884 106.102C81.5761 106.257 81.7871 106.582 81.3792 107.02C80.8025 107.641 80.7462 108.05 81.1119 108.94C81.7308 110.45 81.759 110.366 80.7462 110.408C79.9445 110.45 79.8601 110.478 79.9023 110.733C79.9304 110.888 80.1274 111.283 80.3665 111.608C80.8869 112.342 80.8869 112.554 80.3524 112.78C80.1274 112.878 79.9304 113.005 79.9304 113.062C79.9304 113.133 80.2539 113.457 80.6478 113.796C81.1823 114.262 81.3229 114.474 81.2526 114.657C81.1401 114.954 80.6478 115.18 80.1274 115.18C79.5788 115.18 79.6913 115.688 80.3524 116.097C80.6618 116.295 80.915 116.521 80.915 116.591C80.915 116.662 80.7181 117.043 80.4931 117.41C79.9304 118.342 79.9445 118.723 80.5775 119.245C81.2948 119.838 81.1963 120.177 80.3102 120.234L79.621 120.276L79.8742 120.657C80.0711 120.954 80.1414 121.321 80.1414 122.323C80.1414 123.353 80.1977 123.678 80.3946 123.89C80.5212 124.045 80.6337 124.299 80.6337 124.469C80.6337 124.906 79.9726 125.626 79.5647 125.626C79.0021 125.626 79.2272 126.459 79.9867 127.165C80.4368 127.589 80.2961 127.899 79.5085 128.309C79.199 128.464 78.9459 128.662 78.9459 128.746C78.9459 128.944 79.9304 129.932 80.1977 130.017C80.4931 130.116 80.1414 130.596 79.4803 131.005C78.8193 131.429 78.8052 131.711 79.4522 132.021C79.9023 132.247 79.9445 132.304 79.9023 132.798C79.8601 133.292 79.8179 133.334 79.185 133.532C78.5942 133.716 78.5239 133.786 78.552 134.097C78.5802 134.337 78.7771 134.548 79.199 134.774C79.8039 135.113 80.1555 135.551 80.0008 135.791C79.9586 135.876 79.6632 135.932 79.3538 135.932C78.7067 135.932 78.2426 136.13 78.2426 136.412C78.2426 136.666 78.9177 137.245 79.4944 137.471C79.7335 137.584 79.9304 137.753 79.9304 137.852C79.9304 138.092 79.4241 138.417 78.8474 138.544C77.8628 138.741 77.905 139.377 78.9177 139.899C79.9726 140.435 79.8601 141.297 78.7208 141.297C78.0879 141.297 78.0175 141.621 78.5239 142.2C79.185 142.948 79.1006 143.202 78.0316 143.555C77.5252 143.725 77.1173 143.894 77.1173 143.922C77.1173 144.205 77.483 144.544 77.9191 144.685C78.6083 144.911 78.9459 145.221 78.9459 145.602C78.9459 146.012 78.6786 146.238 78.0457 146.336C77.6237 146.407 77.5393 146.478 77.5393 146.746C77.5393 147 77.68 147.141 78.0738 147.325C78.3973 147.48 78.6083 147.692 78.6364 147.875C78.6786 148.129 78.5802 148.186 78.116 148.271C77.5393 148.355 77.1173 148.765 77.1173 149.231C77.1173 149.372 77.3705 149.64 77.68 149.838C78.4817 150.346 78.4395 150.699 77.5674 150.812C77.1877 150.854 76.7657 150.981 76.625 151.094C76.3859 151.263 76.3719 151.32 76.5547 151.532C76.6672 151.673 77.0048 151.927 77.2861 152.11C77.8769 152.492 78.0175 153.014 77.5393 153.014C77.3705 153.014 77.047 153.113 76.822 153.24C76.4 153.452 76.4 153.466 76.6391 153.748C76.7798 153.903 77.1033 154.115 77.3565 154.214C78.1863 154.567 77.8909 155.075 76.7798 155.216C76.2734 155.287 76.1328 155.357 76.2031 155.527C76.4985 156.289 76.836 157.997 76.836 158.689C76.836 159.141 76.822 159.508 76.7938 159.508C76.7657 159.508 76.3156 159.282 75.767 159.014C73.4322 157.828 70.9566 157.263 67.595 157.15L65.1617 157.066V156.6C65.1617 156.346 65.0913 156.12 65.0069 156.092C64.8944 156.049 65.1054 154.708 65.6961 151.743C66.1603 149.372 66.9339 145.122 67.3981 142.285C67.8622 139.447 68.7202 134.224 69.311 130.666C70.9707 120.516 71.7302 116.916 72.9821 113.02C73.9245 110.126 74.0511 109.561 74.1636 108.191C74.262 106.893 74.3605 106.483 74.7403 105.664L75.1904 104.69L75.3029 101.218C75.4154 97.3211 75.4295 97.2223 76.822 90.5448C78.7208 81.4392 81.5058 65.6983 82.4622 58.6397C83.4749 51.1716 84.136 42.7295 84.1501 37.3508V36.1084L83.7422 36.3202C83.0249 36.7014 82.8561 37.3084 82.9545 39.2707C83.053 41.1766 83.0389 41.3319 80.8588 57.6515C80.2821 61.9996 79.6773 66.7571 79.5085 68.2395C79.3397 69.7218 79.0302 71.6417 78.8052 72.5452C77.7644 76.6957 76.7938 82.0744 75.2185 92.4507C73.2493 105.312 72.6164 108.516 70.5628 115.956C69.0859 121.292 69.0015 121.589 68.6921 123.015C68.2983 124.793 67.5387 129.382 66.7089 135.014C65.3023 144.628 64.6694 148.158 63.6004 152.52C62.5877 156.67 62.3345 157.447 61.9547 157.503C61.7859 157.531 61.6453 157.602 61.6453 157.673C61.6453 157.884 60.7029 158.11 60.295 158.011C60.0699 157.955 59.5495 157.659 59.1275 157.362C58.1711 156.642 57.4256 156.388 54.7813 155.837C52.151 155.301 51.2368 154.976 50.5194 154.299C49.8584 153.649 49.8443 153.423 50.3225 151.673C50.5194 150.967 50.8008 149.654 50.9555 148.751C51.3071 146.689 51.6869 145.391 52.9106 141.96C54.5563 137.372 54.6406 137.047 54.8938 134.45C55.1189 132.233 55.2314 131.782 56.3988 128.76C57.2287 126.558 57.5522 125.513 58.0023 123.396C59.2541 117.438 61.0123 110.789 63.741 101.698C64.2052 100.145 64.81 98.0552 65.0773 97.0529C65.4289 95.74 65.668 95.1329 65.9212 94.8647C66.2728 94.4977 66.2869 94.413 66.2588 93.1424C66.2306 91.8295 66.2306 91.7871 67.0183 89.7684C70.1127 81.7215 70.394 80.7898 71.6177 74.3099C72.6867 68.7053 73.0946 67.1242 74.1073 64.7101C74.7825 63.0866 75.0919 62.0984 75.4295 60.4749C75.6686 59.3032 76.3719 56.3103 76.9907 53.7974C77.5956 51.2846 78.327 48.1364 78.6083 46.8094C79.6773 41.6424 80.479 38.5084 81.1541 36.7437C81.2807 36.4049 80.69 36.5179 80.2118 36.9131C79.5647 37.4637 79.1287 38.4096 77.4549 42.8565C77.0611 43.9012 76.8923 44.9035 76.6954 47.2752C76.4703 50.014 76.2734 51.4257 76.0624 51.6516C75.964 51.7646 75.8233 52.0469 75.7811 52.2869C75.6405 52.8939 75.317 53.3457 75.0356 53.3457C74.8387 53.3457 74.7965 53.501 74.7825 54.3763C74.7825 55.675 74.248 57.228 73.4462 58.3009C72.8414 59.1197 72.7992 59.3314 73.1087 60.3479C73.2212 60.729 73.3196 61.2796 73.3196 61.562V62.0984H72.6164C72.1522 62.0984 71.9131 62.1549 71.899 62.2678C71.8568 62.6772 71.9694 62.889 72.3632 63.2278C72.6445 63.4678 72.7711 63.6937 72.743 63.8631C72.6867 64.1031 72.546 64.1454 71.8287 64.1878L70.9848 64.2301L71.041 65.5995C71.0692 66.376 71.1817 67.1524 71.2942 67.3783C71.5474 67.9006 71.5474 67.8865 71.2098 67.8865C70.8301 67.8865 70.2252 68.183 70.2252 68.3806C70.2252 68.4653 70.4503 68.7477 70.7175 69.0159C71.0973 69.383 71.2098 69.6088 71.2098 69.9759C71.2098 70.4418 71.1958 70.4559 70.7597 70.3994C70.5065 70.3571 70.183 70.2865 70.0564 70.2159C69.8314 70.1312 69.8033 70.2018 69.8033 70.71C69.8033 71.3876 70.0002 71.8394 70.2956 71.8394C70.5487 71.8394 70.5628 71.9947 70.3378 72.3052C70.183 72.5029 70.0705 72.517 69.6767 72.4041C69.4094 72.3335 69.1422 72.3052 69.0859 72.3476C68.8327 72.5029 68.9734 73.2088 69.3813 73.8158C69.8033 74.4511 69.9158 74.804 69.6767 74.804C69.6064 74.804 69.2969 74.7193 68.9875 74.6064C68.1295 74.2958 67.9607 74.677 68.678 75.3264C69.3391 75.9193 69.2406 76.1875 68.3686 76.244L67.6231 76.2863L67.5809 76.964C67.5528 77.4581 67.6653 78.0228 67.9748 78.9122C68.2139 79.6039 68.3686 80.2392 68.3264 80.3098C68.2139 80.4933 67.1449 80.7615 66.8354 80.6909C66.3291 80.5498 66.5401 81.1286 67.1308 81.5239C67.595 81.8344 67.6934 81.9756 67.6934 82.3709C67.6934 82.9215 67.4543 83.0909 66.4979 83.2321C65.7524 83.3309 65.7524 83.4862 66.4416 83.9379C67.1308 84.4038 67.2715 84.5308 67.2715 84.7567C67.2715 84.912 67.0886 84.9685 66.5682 84.9685C65.9774 84.9685 65.8649 85.0108 65.8649 85.2367C65.8649 85.3779 66.0618 85.7308 66.2869 86.0273C66.7229 86.5779 66.7792 86.7614 66.5963 87.0437C66.526 87.1708 66.3432 87.1708 65.8931 87.0437C65.246 86.8743 64.8522 87.0014 64.7678 87.4108C64.7397 87.5378 64.9788 87.919 65.2882 88.2578C65.6117 88.5966 65.8649 89.006 65.8649 89.1613C65.8649 89.5143 65.3304 89.7684 64.599 89.7684C64.2896 89.7684 64.0364 89.8248 64.0364 89.9095C64.0364 90.2342 64.374 90.7283 64.7397 90.9542L65.1476 91.1942L64.6272 91.6742C64.1067 92.1401 64.1067 92.1542 64.1067 93.3259V94.4977L63.3753 94.54C62.4892 94.5965 62.4189 94.7941 63.0518 95.5C63.6144 96.1494 63.5019 96.347 62.6299 96.2906C61.9969 96.2341 61.9266 96.2623 61.9266 96.5306C61.9266 96.7 62.0813 97.0811 62.2782 97.3917C62.4751 97.7023 62.6299 98.0835 62.6299 98.2388C62.6299 98.4788 62.5314 98.5211 62.0672 98.5211C61.5749 98.5211 61.5046 98.5635 61.5046 98.8599C61.5046 99.0434 61.7015 99.4246 61.9266 99.7211C62.4611 100.399 62.4892 101.006 61.9828 101.232C61.7156 101.359 61.5187 101.359 61.2233 101.246C60.4778 100.963 60.4356 101.57 61.153 102.248C61.4202 102.516 61.6453 102.841 61.6453 102.996C61.6453 103.307 61.1248 103.603 60.5763 103.603C60.2387 103.603 60.2247 103.646 60.309 104.069C60.3653 104.309 60.4216 104.62 60.4638 104.747C60.5763 105.142 60.1684 105.495 59.6198 105.481C59.1838 105.467 59.1135 105.509 59.1135 105.792C59.1135 106.003 59.2823 106.257 59.5917 106.497C60.1121 106.893 60.309 107.457 60.0137 107.711C59.859 107.839 59.648 107.824 59.1697 107.697C58.6212 107.542 58.5087 107.542 58.3117 107.74C58.1008 107.951 58.143 108.022 58.8181 108.657C59.4229 109.236 59.5495 109.434 59.5073 109.758C59.4651 110.168 59.4651 110.168 58.368 110.21L57.2568 110.253L57.8335 110.662C58.2977 111.001 58.4102 111.17 58.4102 111.523C58.4102 111.89 58.368 111.947 58.1711 111.862C57.5522 111.594 57.285 111.608 57.285 111.904C57.285 112.243 57.4819 112.413 58.1711 112.624C58.6071 112.78 58.6915 112.864 58.6915 113.189C58.6915 113.881 58.2836 114.093 57.2146 113.98C56.5395 113.909 56.3004 113.937 56.3004 114.05C56.3004 114.248 57.1865 115.151 57.6929 115.476C58.2414 115.829 57.946 116.027 56.8489 116.027C56.1597 116.027 55.8784 116.083 55.8784 116.196C55.8784 116.492 56.0472 116.662 56.6801 117.071C57.1302 117.339 57.285 117.537 57.285 117.791C57.285 118.116 57.2428 118.144 56.5817 118.144C55.9628 118.144 55.8784 118.172 55.8784 118.441C55.8784 118.61 56.0613 118.963 56.3004 119.231C56.7364 119.725 56.7927 119.923 56.5958 120.248C56.5114 120.375 56.3426 120.417 56.0753 120.346C55.2455 120.135 54.9642 120.177 54.922 120.488C54.8938 120.714 55.0204 120.883 55.3721 121.109C55.8503 121.405 56.3004 121.899 56.3004 122.125C56.3004 122.196 55.8925 122.238 55.3861 122.238C54.6828 122.238 54.4719 122.281 54.4719 122.436C54.4719 122.704 54.8094 123.029 55.3439 123.311C55.7096 123.495 55.7518 123.579 55.6674 123.975C55.5127 124.68 55.3299 124.822 54.6828 124.737C54.3734 124.695 54.0077 124.624 53.8811 124.568C53.6701 124.483 53.6279 124.539 53.6279 124.836C53.6279 125.231 53.8248 125.457 54.6125 125.965C54.9923 126.205 55.1048 126.36 55.1048 126.685C55.1048 127.151 54.9642 127.179 53.867 126.967L53.3326 126.855L53.3747 127.335C53.4029 127.716 53.5295 127.885 53.9374 128.153C54.5984 128.577 54.6828 129.071 54.0921 128.916C53.4029 128.732 52.8684 128.789 52.8121 129.029C52.7981 129.156 52.995 129.523 53.2763 129.847C53.5435 130.186 53.7686 130.567 53.7686 130.723C53.7686 130.963 53.6561 130.991 52.8543 130.991C52.0385 130.991 51.9401 131.019 51.9401 131.273C51.9401 131.457 52.1229 131.64 52.4746 131.796C52.8684 131.993 53.009 132.149 53.0372 132.445C53.0794 132.826 53.0653 132.826 52.3058 132.826C51.8697 132.826 51.5181 132.883 51.5181 132.953C51.5181 133.306 51.7431 133.574 52.2776 133.843C52.9106 134.167 53.0653 134.323 53.0653 134.69C53.0653 134.916 52.9247 134.944 51.9401 134.944C50.9273 134.944 50.8148 134.972 50.8148 135.212C50.8148 135.367 51.068 135.791 51.3774 136.144C51.9541 136.807 52.362 137.485 52.362 137.767C52.362 137.852 51.926 137.908 51.2368 137.908C50.2241 137.908 50.1115 137.937 50.1115 138.177C50.1115 138.445 50.7164 139.038 50.9977 139.038C51.2509 139.038 51.6588 139.49 51.6588 139.758C51.6588 139.899 51.504 140.125 51.3212 140.238C51.0399 140.421 50.8711 140.435 50.4351 140.322C49.6052 140.082 49.4083 140.125 49.4083 140.52C49.4083 140.732 49.5489 140.958 49.774 141.113C50.421 141.551 50.9555 142.115 50.9555 142.341C50.9555 142.525 50.7867 142.567 50.0694 142.567C48.8035 142.567 48.6909 142.751 49.4927 143.569C49.9287 144.021 50.1256 144.318 50.0694 144.459C49.9287 144.826 49.5349 144.896 49.0988 144.642C48.8597 144.515 48.5221 144.402 48.3252 144.402C47.7767 144.402 47.9455 144.967 48.5925 145.32C48.9722 145.518 49.127 145.701 49.127 145.913C49.127 146.209 49.0566 146.238 48.4237 146.238C48.0439 146.238 47.7204 146.266 47.7204 146.308C47.7204 146.351 47.9455 146.704 48.2127 147.099C48.48 147.494 48.705 147.889 48.705 147.988C48.705 148.073 48.7472 148.285 48.7894 148.454C48.8738 148.751 48.8316 148.779 48.3956 148.779C48.1283 148.779 47.5094 148.581 47.0171 148.341C46.1029 147.875 44.3728 146.365 43.9649 145.659C43.7821 145.362 43.5148 145.193 42.9522 145.024C42.1083 144.784 41.4331 144.346 39.9141 143.118C38.9154 142.313 37.9167 141.72 37.537 141.72C37.1009 141.72 37.1713 141.367 38.0011 139.701C39.0139 137.64 39.9844 136.031 41.194 134.421C41.8832 133.504 42.0942 133.123 42.0942 132.756C42.0942 131.753 42.6287 130.045 43.2476 128.986C46.7921 123.113 49.4927 116.888 55.0345 101.839C55.6674 100.13 56.9333 96.8835 57.8476 94.6388C59.437 90.7001 60.4638 88.0461 62.2079 83.2038C64.0223 78.2204 67.8622 68.1124 70.9707 60.1926C71.885 57.835 72.4054 56.2821 72.6726 55.0962C73.0805 53.2186 74.2902 48.9693 75.8374 43.9718C76.7376 41.0636 76.836 40.6119 76.836 39.5954L76.822 38.4519L76.4141 38.9037C75.9921 39.3695 75.767 40.0189 75.3591 41.9813C75.1763 42.8001 74.8387 43.6471 74.0933 45.0871C72.8696 47.4588 72.8133 47.6141 72.546 49.6611C72.3351 51.3128 72.1522 51.7646 71.5615 52.1598C71.041 52.4987 70.4643 54.1927 69.1703 59.2044C68.889 60.2914 68.467 61.8161 68.2279 62.5925C67.4121 65.2607 64.3318 73.237 63.2487 75.4675C61.8141 78.4322 61.7437 78.6016 61.2233 80.4651C60.3934 83.4015 59.7464 85.2649 57.8054 90.3331C57.2287 91.8436 56.427 94.0318 56.0191 95.2035C53.9655 101.203 53.4029 102.672 51.3493 107.627C44.9636 123.015 40.547 132.247 36.6649 138.36C35.9054 139.546 35.9054 139.546 35.0614 139.73C33.894 139.97 33.7815 139.899 31.095 137.174C28.9429 135 28.521 134.506 28.085 133.589C27.6067 132.629 27.5645 132.431 27.5505 131.316C27.5364 130.102 27.5505 130.073 27.9162 129.89C28.1271 129.791 28.5772 129.382 28.9008 128.972C29.2383 128.577 29.8009 127.956 30.1526 127.603C30.6027 127.151 30.8418 126.77 30.9824 126.262C31.1372 125.725 31.3903 125.344 32.0655 124.638C32.7547 123.918 33.1485 123.311 33.9081 121.815C34.4285 120.77 35.7647 118.469 36.8618 116.704C38.9998 113.288 40.125 111.227 40.8283 109.547C41.0674 108.968 41.4894 108.234 41.7988 107.895C42.5584 107.076 43.0929 105.961 43.6414 104.027C44.1759 102.149 44.5979 101.246 45.3293 100.356C46.2154 99.2693 46.3279 99.0293 46.4545 97.7447C46.5952 96.347 46.8905 95.6412 48.4237 92.9448C48.9582 92.013 49.999 89.9519 50.7445 88.3566C54.7813 79.7874 58.143 72.39 61.2374 65.2748C62.1094 63.256 63.3894 60.4891 64.0786 59.1338C66.4275 54.5174 67.6231 51.7363 70.8301 43.4495C71.7162 41.1624 72.7711 38.6354 73.1649 37.8308C73.9104 36.3061 74.0511 35.5579 73.6994 35.0779C73.5166 34.8379 73.4744 34.8661 73.0524 35.4308C72.4195 36.3202 71.3645 38.4096 70.3659 40.8519C69.4376 43.0824 68.5374 44.9741 68.1013 45.5953C67.9607 45.7929 67.806 46.2447 67.7497 46.5835C67.4262 48.8564 66.8073 50.4658 64.6412 54.7574C63.7973 56.4233 62.9534 58.2868 62.7705 58.8797C62.5736 59.4867 62.3485 59.9808 62.2642 59.9808C62.1798 59.9808 61.9969 60.1361 61.8703 60.3338C61.7437 60.5314 61.5046 60.6867 61.3499 60.6867C61.1248 60.6867 61.0827 60.7432 61.153 60.9267C61.2092 61.0679 61.2796 61.3784 61.3218 61.6184C61.3921 62.0278 61.3499 62.0984 60.8857 62.3102C60.2247 62.6349 59.9011 63.1855 59.4792 64.7666C59.0432 66.3901 58.7196 67.0254 58.157 67.3924C57.7351 67.6607 57.721 67.7171 57.7069 68.6347V69.6088L57.1865 69.5524C56.7364 69.51 56.652 69.5524 56.6098 69.8065C56.5817 69.9759 56.6661 70.3571 56.7786 70.6394C56.9052 70.9359 57.0037 71.2888 57.0037 71.43C57.0037 71.7688 56.4973 71.9805 55.7237 71.9805C55.0345 71.9805 54.9782 72.3052 55.5971 72.8982C55.8221 73.1241 56.0191 73.4064 56.0191 73.5193C56.0191 73.6464 55.6956 73.9287 55.3017 74.1687C54.0499 74.917 53.4732 76.004 53.4591 77.6557C53.4591 78.5451 53.4451 78.6016 53.0653 78.7569C52.7559 78.8839 52.6011 78.8839 52.362 78.7569C52.1089 78.6157 52.0245 78.6298 51.926 78.771C51.8557 78.8839 51.8275 79.0251 51.8557 79.1098C51.8838 79.1804 51.9823 79.491 52.0948 79.7733C52.2214 80.1545 52.2354 80.4227 52.137 80.6909C52.0245 81.0439 51.926 81.0862 51.2649 81.1286C50.3929 81.185 50.2944 81.4392 50.9555 82.0744C51.4618 82.5544 51.49 82.8509 51.0539 82.8509C50.5054 82.8509 50.1537 83.4015 49.7177 84.9685C49.127 87.1425 48.7894 87.6508 48.0158 87.6508C47.636 87.6508 47.5094 88.1449 47.7767 88.5684C47.9033 88.7519 48.0017 89.0625 48.0017 89.2601C48.0017 89.5425 47.9033 89.6413 47.4672 89.7543C47.1859 89.839 46.8624 89.9095 46.7499 89.9095C46.5952 89.9095 46.5811 90.0507 46.6655 90.5731C46.8484 91.8154 46.8202 92.1965 46.553 92.366C46.342 92.493 46.2435 92.4507 45.9763 92.126C45.6247 91.6883 45.3152 91.646 45.0339 91.9707C44.8792 92.1542 44.8932 92.2813 45.1605 92.7754C45.695 93.7777 45.5825 94.0036 44.7385 93.6506C44.5275 93.5659 44.4853 93.6224 44.4853 94.0459C44.4853 94.4553 44.5838 94.6247 44.9917 94.9635C45.8356 95.6694 45.484 95.8247 43.7961 95.4718C43.3601 95.3871 43.332 95.4012 43.4304 95.7118C43.6695 96.4741 43.7821 96.6576 44.1337 96.94C44.3447 97.1094 44.4713 97.307 44.415 97.3917C44.3728 97.4623 43.8524 97.5329 43.2757 97.5329C42.263 97.5329 42.2208 97.547 42.263 97.8435C42.2911 98.0694 42.474 98.2246 42.8678 98.3799C43.6977 98.6905 43.7821 98.7752 43.7821 99.2693C43.7821 100.06 43.6133 100.173 42.8397 99.947C41.8832 99.6787 41.616 99.6787 41.5597 99.9752C41.5316 100.13 41.7707 100.483 42.2208 100.921C42.9803 101.655 43.0788 101.909 42.7131 102.206C42.5443 102.347 42.3615 102.347 41.7707 102.206C40.5048 101.909 40.4767 101.923 40.5048 102.474C40.5189 102.799 40.6314 103.039 40.8564 103.208C41.7707 103.886 41.9536 104.069 41.9536 104.253C41.9536 104.521 41.2503 104.507 40.3501 104.239C39.9141 104.097 39.6046 104.069 39.5202 104.154C39.253 104.422 39.5624 104.944 40.1954 105.326C40.6173 105.58 40.8283 105.806 40.8283 106.003C40.8283 106.399 40.3923 106.37 39.9844 105.933C39.5905 105.509 38.9998 105.453 38.9998 105.848C38.9998 105.989 39.0983 106.342 39.2108 106.61C39.4921 107.288 39.4921 108.177 39.2248 108.079C38.7747 107.895 38.0011 107.81 37.6636 107.895C37.1291 108.036 37.1994 108.502 37.8042 108.742C38.2121 108.926 38.2965 109.024 38.2965 109.377C38.2965 109.886 38.1137 109.928 37.5229 109.533C36.9462 109.151 36.89 109.166 36.89 109.744C36.89 110.408 37.1994 110.987 37.6636 111.198C37.973 111.34 38.0152 111.41 37.8746 111.58C37.6214 111.876 37.3401 111.848 36.8056 111.438C36.5524 111.241 36.2148 111.086 36.0601 111.086C35.821 111.086 35.7647 111.17 35.7647 111.551C35.7647 111.805 35.8632 112.356 35.9898 112.765C36.1023 113.175 36.1726 113.556 36.1304 113.598C36.0882 113.641 35.8913 113.598 35.6944 113.514C35.2724 113.316 35.188 113.316 34.9489 113.457C34.7239 113.613 35.0896 114.587 35.5115 114.911C35.821 115.151 35.7507 115.462 35.399 115.462C35.2865 115.462 35.0052 115.363 34.7801 115.25C34.4004 115.052 34.3582 115.052 34.2316 115.292C34.1331 115.476 34.1753 115.716 34.4004 116.154C34.9208 117.17 34.2597 117.678 33.4439 116.874C33.1907 116.62 32.8954 116.45 32.7969 116.478C32.6984 116.507 32.614 116.93 32.5719 117.594C32.5156 118.469 32.5578 118.709 32.7547 118.907C32.9376 119.09 32.9516 119.189 32.825 119.316C32.6984 119.443 32.5437 119.415 32.178 119.217C31.9108 119.062 31.6435 118.977 31.6013 119.019C31.5591 119.076 31.5873 119.344 31.6717 119.626C31.8404 120.276 31.7561 120.502 31.2497 120.77C30.7855 121.01 30.7855 120.996 31.0106 121.631C31.2356 122.266 31.0106 122.521 30.5042 122.182C30.3073 122.055 30.0541 121.956 29.9275 121.956C29.59 121.956 29.6603 122.831 30.0541 123.41C30.2932 123.763 30.3495 123.946 30.237 124.059C29.9557 124.342 29.6322 124.229 28.957 123.636C28.1131 122.888 27.9724 123.156 28.5772 124.412C29.3649 126.05 28.9851 126.544 27.9302 125.259C27.663 124.92 27.3817 124.638 27.3113 124.638C27.1144 124.638 27.1707 125.372 27.3957 125.768C27.5786 126.106 27.6771 126.756 27.5364 126.756C27.5083 126.756 27.3254 126.685 27.1285 126.6C26.7487 126.417 26.594 126.12 26.2846 124.808C26.1017 124.102 25.9048 123.735 25.3422 123.071C24.9483 122.619 23.8794 121.208 22.9651 119.951L21.3194 117.65L21.6429 116.69C22.1774 115.109 22.7541 114.248 23.8653 113.358C25.2859 112.229 25.8626 111.608 26.0595 110.987C26.3549 110.027 26.8191 109.462 27.4379 109.278C28.1412 109.067 28.9148 108.206 29.9838 106.469C31.742 103.603 32.9235 101.966 35.1458 99.2976C38.1137 95.74 38.7325 94.893 40.6877 91.7871C43.0788 87.9896 43.8946 86.7896 44.5557 86.0979C44.8932 85.7449 45.6809 84.5732 46.3279 83.4862C47.5094 81.4674 48.9863 79.1804 50.0553 77.7263C50.3788 77.2887 51.0539 76.1452 51.5322 75.1852C52.5308 73.2088 54.9079 68.903 57.7069 64.0043C61.2233 57.835 63.2487 54.0374 64.9085 50.4516C65.9774 48.1788 67.6934 43.9859 67.6934 43.7036C67.6794 43.6047 67.3559 43.9012 66.948 44.3388C66.2025 45.1576 66.104 45.3271 64.585 48.4611C63.8817 49.9434 63.5441 50.4658 62.8268 51.1999C62.0954 51.9622 61.8844 52.301 61.5749 53.1904C61.0264 54.7574 58.7478 59.3456 57.4678 61.4631C56.8489 62.4655 55.3721 64.8795 54.1905 66.8277C52.995 68.7618 51.7291 71.0488 51.3634 71.8817C50.646 73.5193 50.1397 74.3099 49.7036 74.4511C49.5489 74.4934 49.4083 74.7193 49.352 74.9593C49.2395 75.5805 48.6347 76.724 47.9877 77.5992C47.3125 78.4886 46.764 79.5474 46.6374 80.1968C46.5811 80.4792 46.2576 80.9874 45.7794 81.5097C45.3433 81.9756 44.5275 83.0909 43.9509 83.9803C41.7988 87.312 41.3347 87.9614 40.5048 88.7943C39.8297 89.486 39.5202 89.9519 38.9998 91.0813C37.6214 94.1306 35.8491 96.7 33.3595 99.2834C31.9811 100.738 31.1512 101.768 29.59 104.027C26.8613 107.994 25.2859 110.013 23.5277 111.777C21.3898 113.937 19.8285 114.883 18.0562 115.123L17.2967 115.222L17.367 114.587C17.4374 113.98 17.4233 113.937 16.7903 113.415C16.4246 113.104 15.8902 112.568 15.5948 112.215C14.99 111.495 13.9913 109.49 13.5412 108.093L13.2318 107.161L13.8928 106.116C15.2431 104.041 17.7187 101.401 21.2772 98.3093C23.6684 96.22 26.2002 93.7212 26.2002 93.4389C26.2002 93.3118 26.2986 93.0859 26.4112 92.9306C26.5237 92.7895 26.6221 92.4648 26.6221 92.2389C26.6221 91.9001 26.7909 91.6319 27.3395 91.1095C28.5491 89.9237 31.3622 86.7049 33.6408 83.8956C37.537 79.1098 39.7734 76.4557 41.3628 74.7617C42.3896 73.6464 43.2898 72.5029 44.0071 71.3735C45.8778 68.4371 48.6206 64.3431 52.151 59.2044C58.1711 50.4516 61.0686 45.9765 63.6426 41.473C65.3304 38.5366 67.7497 33.8779 67.6512 33.765C67.4965 33.6097 66.8495 33.8779 66.3853 34.2873C65.8649 34.7391 65.6117 35.2473 65.1476 36.7861C64.7397 38.1696 64.5006 38.5084 63.2347 39.539C61.378 41.0495 61.2092 41.2472 61.2374 42.1083C61.2655 42.7859 61.1952 42.9412 60.5622 43.9012C60.1684 44.48 59.5214 45.5953 59.1135 46.3859C58.2555 48.1082 57.3975 49.1246 56.5114 49.4917L55.8784 49.7458V50.6916V51.6375L55.2736 52.0045C54.922 52.2022 54.4437 52.3575 54.1484 52.3575C53.5717 52.3575 53.5154 52.4987 53.8389 53.0633C53.9514 53.261 54.0358 53.5857 54.0499 53.7833C54.0499 54.108 53.9796 54.1786 53.5717 54.2492C52.995 54.3621 52.7981 54.5739 52.1792 55.8303C51.6728 56.8327 51.1243 57.4397 50.7164 57.4397C50.5757 57.4397 50.5335 57.5244 50.6038 57.6797C50.6601 57.8209 50.7304 58.1456 50.7726 58.3856C50.843 58.8232 50.8148 58.8656 50.21 59.1197C49.4505 59.4444 49.2254 59.8114 49.2957 60.5596L49.352 61.1102H48.6206H47.8892L47.9595 61.7031C48.058 62.649 47.6501 63.1713 46.5952 63.4678L45.7512 63.6937V64.5831C45.7512 65.5572 45.5121 65.8819 45.0198 65.6136C44.7948 65.5007 44.7807 65.5289 44.8651 65.9101C44.9354 66.3054 44.8651 66.4183 44.0774 67.1524C43.2194 67.9571 43.2194 67.9571 43.2194 68.7336V69.51L42.474 69.863C41.7988 70.1877 41.7285 70.2582 41.63 70.8512C41.4613 71.6841 41.3628 71.797 40.6173 71.91C39.9141 72.0088 39.7031 72.2629 39.7031 72.997C39.7031 73.7452 39.5202 73.9146 38.9717 73.7029C38.5638 73.5476 38.4794 73.5617 38.3246 73.7734C38.2262 73.9146 38.1699 74.1264 38.2121 74.2393C38.2403 74.3523 38.3387 74.6487 38.409 74.8887L38.5497 75.3405L37.2979 75.8628C36.6087 76.1452 36.0179 76.4416 35.9616 76.5122C35.9194 76.5828 36.032 76.9216 36.2008 77.2745C36.5946 78.051 36.468 78.2486 35.7366 78.0228C34.8223 77.7404 34.4004 78.1781 34.9067 78.8839C35.0755 79.1098 35.2021 79.4204 35.2021 79.5615C35.2021 80.2533 34.33 80.3945 33.8518 79.7733C33.683 79.5615 33.5002 79.4345 33.458 79.4768C33.4017 79.5192 33.3033 79.9568 33.2189 80.4368C33.0501 81.3968 32.8813 81.4815 32.1077 81.0862C31.7561 80.9027 31.6857 80.9027 31.6857 81.058C31.6857 81.3968 32.1077 82.4838 32.2765 82.5827C32.4031 82.6674 32.4031 82.7379 32.2624 82.9074C32.1077 83.0909 32.0374 83.0909 31.6576 82.8509C31.1512 82.5403 30.8418 82.625 30.8418 83.0626C30.8418 83.2462 30.6167 83.6697 30.3354 84.0085C29.7728 84.6579 29.4352 85.3496 29.4352 85.8014C29.4352 86.1402 28.9851 86.3096 28.6054 86.112C28.4507 86.0273 28.1693 85.9567 27.9724 85.9567C27.6911 85.9567 27.6067 86.0273 27.6067 86.2673C27.6208 86.4508 27.7052 86.7473 27.8177 86.9449C28.2537 87.7072 27.874 88.3002 27.1988 87.9472C27.0441 87.8625 26.7487 87.7919 26.5518 87.7919C26.2424 87.7919 26.2002 87.8484 26.2564 88.0743C26.2986 88.2296 26.383 88.4837 26.4252 88.6531C26.6643 89.5001 26.0033 89.966 25.5532 89.2743C25.2718 88.8507 25.1312 88.8366 24.9343 89.2178C24.8077 89.4296 24.8218 89.6554 24.9905 90.1495C25.1171 90.5166 25.2156 90.9542 25.2156 91.1377C25.2156 91.4483 25.1734 91.4624 24.2451 91.4624C23.6965 91.4624 23.2183 91.533 23.1761 91.6036C23.1198 91.6883 23.2464 91.9424 23.4574 92.1965C24.1466 93.0154 23.5981 93.6789 22.8245 92.9448C22.5994 92.733 22.3181 92.5918 22.1634 92.6201C21.9524 92.6624 21.9102 92.8036 21.9243 93.4812C21.9383 94.3565 21.7977 94.4977 21.3476 94.0036C21.0522 93.6647 20.6021 93.6365 20.4896 93.933C20.4333 94.0459 20.5036 94.3988 20.6302 94.7094C20.7568 95.02 20.8553 95.3165 20.8553 95.3588C20.8553 95.4435 20.4896 95.3871 19.6878 95.1894C19.3221 95.1047 19.3081 95.1188 19.3081 95.6694C19.3081 95.98 19.4065 96.3329 19.5191 96.4459C19.7019 96.6294 19.7019 96.6859 19.505 96.8411C19.3221 96.9823 19.2096 96.9823 18.8439 96.827C18.5907 96.7282 18.211 96.6435 17.9718 96.6294C17.6061 96.6153 17.5499 96.6576 17.6061 96.9682C17.6202 97.1658 17.7609 97.4764 17.9015 97.6882C18.0422 97.8858 18.211 98.2246 18.2672 98.4364L18.3516 98.8176L17.8171 98.5776C17.5077 98.4505 17.0998 98.3093 16.8747 98.267C16.509 98.2105 16.495 98.2246 16.495 98.8599C16.495 99.3964 16.4528 99.5093 16.2418 99.5093C16.1011 99.5093 15.8902 99.354 15.7917 99.1564C15.5807 98.7611 15.2713 98.747 15.0322 99.114C14.9196 99.2976 14.9478 99.5234 15.1306 100.032C15.5666 101.246 15.2994 101.81 14.6946 100.963C14.5117 100.709 14.357 100.625 14.1742 100.681C13.9772 100.766 13.9491 100.879 14.0194 101.316C14.2164 102.389 14.1882 102.672 13.921 102.728C13.3162 102.855 12.7817 101.966 12.5707 100.483C12.4441 99.594 12.205 98.987 10.9532 96.4035C10.1374 94.7377 9.23716 92.9448 8.94179 92.4224L8.4073 91.4766L9.11057 90.7566C10.0389 89.7825 11.0938 89.0625 13.5271 87.6649C19.4628 84.2626 29.2243 76.4416 38.6482 67.5477C44.2884 62.2114 47.4954 58.9644 47.9033 58.1315C48.4659 57.0162 49.4927 55.6892 50.7445 54.4751C51.3493 53.8963 52.151 52.9504 52.5449 52.3575C52.9387 51.7787 54.0499 50.2822 55.0345 49.0399C56.005 47.7976 57.1021 46.3717 57.4537 45.8635C58.0586 44.9882 59.3948 42.7154 59.3948 42.5459C59.3948 42.5036 59.0572 42.6448 58.6634 42.8424C57.6085 43.3789 56.0331 45.0306 54.3734 47.3458C53.5998 48.4329 51.5884 50.9457 49.9006 52.9222C48.2127 54.8986 46.0185 57.5527 45.0058 58.8091C43.5992 60.5879 43.0366 61.1667 42.5865 61.3926C42.2349 61.562 41.5597 62.1549 40.983 62.7902C40.4345 63.3972 39.7453 64.0325 39.4358 64.1737C39.0279 64.3854 38.6763 64.7525 38.1559 65.5289C37.3541 66.743 36.257 67.8018 34.9067 68.6771C34.4004 69.0018 33.894 69.383 33.7815 69.5241C33.669 69.6512 32.0936 71.0065 30.2792 72.5311C28.4647 74.0417 26.369 75.9052 25.6235 76.6534C24.7092 77.5851 23.8231 78.3051 22.8807 78.898C21.1366 79.9992 19.941 80.8603 15.7214 84.0509C10.9954 87.6367 8.4073 89.3448 7.71809 89.3448C7.43678 89.3448 7.28206 89.2319 7.09921 88.8931C6.97262 88.6531 6.71944 88.2861 6.53659 88.1025L6.21308 87.7637L6.35373 84.1356C6.50845 80.6062 6.7335 78.4745 7.11327 77.204C7.29612 76.5687 7.31019 76.5687 9.11057 75.6511C10.1233 75.1428 11.8815 74.2958 13.0208 73.7593C15.4823 72.6017 17.0295 71.67 18.0703 70.7241C18.5345 70.3006 19.5191 69.6935 20.6443 69.1147C23.9638 67.4207 27.4098 65.2042 31.5451 62.1125C33.9081 60.3479 42.8397 53.2045 45.1183 51.2422C47.1437 49.5199 50.2381 46.4423 51.6166 44.8047C52.7277 43.4918 55.1048 40.0895 54.9923 39.9766C54.8938 39.8778 53.7686 40.3436 53.3326 40.6683C53.0934 40.8519 52.5589 41.5154 52.137 42.1507C51.3352 43.3365 49.4786 45.1294 43.0085 50.8752C39.1264 54.3198 38.8451 54.5598 38.0152 54.8986C36.7915 55.4209 35.4834 56.3386 34.527 57.355C33.8237 58.075 33.5424 58.2868 33.2329 58.2868C33.0079 58.2868 32.7828 58.2162 32.7266 58.1315C32.6703 58.0326 32.5719 58.1032 32.4734 58.3009C32.389 58.4703 31.9811 58.8232 31.5591 59.0632C30.6589 59.5997 30.4198 59.882 30.4198 60.4467C30.4198 60.8561 30.4058 60.8561 29.8853 60.7996C29.4071 60.729 29.3368 60.7573 29.1821 61.1102C29.0695 61.3502 28.7038 61.6608 28.1975 61.929C27.3113 62.409 26.9878 62.7055 26.8472 63.1855C26.7065 63.6231 26.2002 63.609 25.6657 63.1572C25.1593 62.7337 24.9343 62.7055 25.0327 63.1008C25.1312 63.4537 24.8358 64.0466 24.5123 64.1454C24.0622 64.2866 23.5277 64.8937 23.5277 65.2748C23.5277 65.6842 23.4574 65.6983 22.7682 65.416C22.3884 65.2466 22.1774 65.2325 21.9805 65.3454C21.657 65.5289 21.6429 65.5854 21.9102 66.0513C22.1774 66.5171 22.1774 67.0254 21.8961 67.1383C21.7695 67.1807 21.4601 67.1101 21.1929 66.983C20.9256 66.856 20.4755 66.7571 20.2083 66.7571H19.7019L19.8004 67.463C19.8707 67.943 19.8426 68.2395 19.73 68.3806C19.4487 68.7194 19.0549 68.6206 18.8158 68.1689C18.4079 67.3783 17.8031 67.7454 17.6624 68.8465C17.5921 69.4818 17.5358 69.5947 17.2264 69.6794C16.9451 69.75 16.7903 69.6794 16.5512 69.3971C16.3684 69.1853 16.1293 69.0159 16.0167 69.0159C15.8058 69.0159 15.5526 69.6653 15.4823 70.3994L15.4401 70.7382L15.0603 70.4418C14.5961 70.0606 14.4133 70.0606 14.357 70.4559C14.3148 70.7523 14.1179 70.9076 13.1896 71.3029C12.852 71.4582 12.7535 71.5994 12.6973 72.0511C12.627 72.5876 12.5988 72.6158 12.1487 72.5876C11.8252 72.5735 11.5298 72.4182 11.1641 72.0653C10.8828 71.7829 10.6015 71.557 10.5453 71.557C10.489 71.557 10.4468 71.9382 10.4468 72.4182V73.2793L10.0389 73.1805C9.47628 73.0535 9.09651 73.2935 8.75894 73.957C8.35104 74.7617 8.01346 74.9028 7.64776 74.437C7.2258 73.9005 7.26799 72.9405 7.77435 71.3876C8.01346 70.6676 8.23851 69.6653 8.29477 69.1571L8.37917 68.2395L10.1514 67.6183C13.7241 66.3901 16.8607 64.7525 21.0241 61.9431C23.7387 60.122 24.7374 59.3456 26.4252 57.7362C28.2819 55.9574 29.2383 55.3504 33.0219 53.5857C35.6663 52.3292 36.9181 51.6657 37.7339 51.0587C38.4794 50.494 39.478 49.4352 39.9141 48.7576C40.3641 48.0376 40.8846 46.8658 40.7861 46.767C40.758 46.7388 40.3923 46.9647 39.9703 47.2894C38.6341 48.2917 36.046 49.8869 31.5873 52.4422C25.314 56.028 22.3603 58.0609 20.1239 60.3055C19.4628 60.969 19.0408 61.2655 18.4641 61.4631C18.0281 61.6184 17.4092 61.9855 17.0576 62.3102C16.706 62.6208 15.9183 63.2419 15.2994 63.6796C14.6805 64.1172 13.9913 64.6678 13.7663 64.9078C13.5131 65.176 13.2036 65.3454 12.9927 65.3454C12.3175 65.3454 10.6578 65.7689 9.9967 66.0936L9.32156 66.4324L8.98399 65.9242C8.18225 64.7242 8.16819 63.5102 8.91366 62.0984C9.15277 61.6326 10.0108 60.4326 10.8125 59.4444C11.7127 58.315 12.4582 57.2138 12.7957 56.508C13.2458 55.5762 13.4568 55.2939 14.1601 54.7715C14.6243 54.4186 15.2853 53.7269 15.637 53.2328C18.6329 49.0117 20.0254 47.3882 21.6289 46.287C23.4293 45.0447 25.6797 44.0141 29.0977 42.8848L31.3341 42.1507L35.9054 42.0518C39.8015 41.953 40.6173 41.8965 41.4613 41.6707C45.0761 40.6542 49.127 38.5507 52.1089 36.1508C53.3326 35.1485 53.2341 35.3743 54.4015 30.8286C55.794 25.4075 56.4692 23.3323 57.4959 21.2994C57.8195 20.6641 57.8476 20.4523 57.8476 18.7018C57.8476 17.3324 57.721 15.9348 57.3975 13.6478C57.088 11.4031 56.9474 9.93494 56.9474 8.52321C56.9333 6.68796 56.9615 6.4762 57.3412 5.44564C57.6366 4.64095 57.932 4.13273 58.4383 3.56803L59.1416 2.8057L59.6198 3.15863C60.3231 3.69509 61.4906 4.20331 62.5877 4.42919C63.2065 4.57036 64.81 4.66919 67.1308 4.71154C70.9285 4.79624 72.0397 4.90918 73.3618 5.36093C74.1214 5.61505 74.248 5.62916 74.8528 5.43152C76.3015 4.97977 77.8487 4.73977 81.6183 4.42919C84.6283 4.17508 84.7408 4.14684 85.4863 3.72333C85.7958 3.5398 86.5553 3.29981 87.1742 3.17275C90.4655 2.52335 93.2786 2.42453 99.9035 2.73511C105.572 2.98922 106.444 2.97511 110.031 2.45277C112.83 2.04336 114.982 2.05748 117.19 2.52335ZM123.126 33.5532C123.688 33.9203 124.799 35.0497 124.799 35.2614C124.799 35.3179 124.659 35.4167 124.49 35.4873C123.688 35.8402 124.11 36.5602 125.939 37.9013C127.781 39.2566 128.372 39.9766 128.667 41.233C128.963 42.4471 129.047 42.6306 129.525 43.1248L129.891 43.4777L130.271 43.1248C130.693 42.7154 130.918 42.6589 131.03 42.9553C131.073 43.0683 131.537 43.3789 132.071 43.6612C133.351 44.3388 134.842 45.4823 137.388 47.7411C140.117 50.1834 140.806 50.7199 145.687 54.3339C147.937 55.9856 151.186 58.4844 152.902 59.8679C157.403 63.4819 158.979 64.4984 166.574 68.7618C171.131 71.317 173.143 72.517 174.69 73.5617C175.618 74.1829 175.773 74.2393 176.546 74.2393C177.334 74.2393 177.461 74.2817 178.206 74.8746C178.656 75.2134 179.43 75.8063 179.936 76.1734C181.723 77.5004 181.99 78.7851 181.272 82.6532C181.061 83.8109 180.865 84.8414 180.836 84.9544C180.794 85.0955 180.611 85.1238 180.063 85.0532C178.938 84.8979 178.248 84.5873 174.718 82.5685C169.05 79.3357 166.447 77.571 164.141 75.3828C163.184 74.4793 162.833 74.2393 162.509 74.2393C162.27 74.2393 161.792 74.084 161.426 73.8864C161.06 73.6887 160.681 73.5335 160.582 73.5335C160.484 73.5335 160.371 73.4064 160.315 73.2652C160.273 73.1099 159.949 72.757 159.612 72.4747C159.26 72.1923 158.979 71.8394 158.979 71.6982C158.979 71.5147 158.669 71.2747 157.966 70.8935C156.602 70.1735 155.139 69.0724 153.338 67.3783C151.003 65.176 149.92 64.2443 147.642 62.4796C143.999 59.6702 142.972 58.7809 139.357 55.3504C134.055 50.3105 131.368 47.5858 129.314 45.0871C126.515 41.713 125.714 40.5836 124.856 38.8754C124.335 37.859 123.829 37.0543 123.337 36.5461C122.169 35.3179 121.185 33.7509 121.339 33.3556C121.466 33.0026 122.422 33.1156 123.126 33.5532ZM126.769 36.2637C127.064 36.419 127.809 36.9696 128.414 37.4778C129.019 38.0002 129.765 38.5931 130.06 38.7907L130.623 39.1578L130.032 39.2001C129.23 39.2566 128.203 38.6919 127.275 37.6614C126.572 36.8708 125.967 35.9814 126.136 35.9814C126.178 35.9814 126.459 36.1084 126.769 36.2637Z" fill="white"/>
</g>
<defs>
<filter id="filter0_d_1_11370" x="0" y="-0.00012207" width="188" height="173" filterUnits="userSpaceOnUse" color-interpolation-filters="sRGB">
<feFlood flood-opacity="0" result="BackgroundImageFix"/>
<feColorMatrix in="SourceAlpha" type="matrix" values="0 0 0 0 0 0 0 0 0 0 0 0 0 0 0 0 0 0 127 0" result="hardAlpha"/>
<feOffset dy="4"/>
<feGaussianBlur stdDeviation="2"/>
<feComposite in2="hardAlpha" operator="out"/>
<feColorMatrix type="matrix" values="0 0 0 0 0 0 0 0 0 0 0 0 0 0 0 0 0 0 0.25 0"/>
<feBlend mode="normal" in2="BackgroundImageFix" result="effect1_dropShadow_1_11370"/>
<feBlend mode="normal" in="SourceGraphic" in2="effect1_dropShadow_1_11370" result="shape"/>
</filter>
</defs>
</svg>
